<svg width="77" height="72" viewBox="0 0 77 72" fill="none" xmlns="http://www.w3.org/2000/svg">
<path fill-rule="evenodd" clip-rule="evenodd" d="M61.6917 0H15.9161V5.30608H0V30.1947C0 39.8136 10.7447 47.729 21.2884 48.5524C24.7498 52.2579 30.8381 54.9495 36.2568 56.0972V62.6024C31.0751 64.1927 21.819 67.9291 21.2884 72H56.8499C56.3142 67.9291 46.1155 64.1876 40.9235 62.6024V56.0972C46.3628 54.9495 52.7241 52.2579 56.1906 48.5524C66.7292 47.729 77 39.8136 77 30.1947V5.30608H61.6917V0ZM4.88815 10.0203H15.5453V31.4608C15.5453 35.6912 16.6372 39.7158 18.5585 43.339C10.585 40.8017 4.88815 34.2656 4.88815 26.6179V10.0203ZM46.6306 36.1698L38.6777 31.7901L30.7145 36.1698L32.234 26.9061L25.7954 20.3494L34.6909 18.9959L38.6777 10.5761L42.6542 18.9959L51.5497 20.3494L45.1111 26.9061L46.6306 36.1698ZM58.4518 44.0234C60.3834 40.2356 61.4908 36.0463 61.4908 31.6152V10.1593H72.1737V26.5561C72.1737 34.5487 66.4511 41.373 58.4518 44.0234Z" fill="white"/>
</svg>
