<svg width="72" height="72" viewBox="0 0 72 72" fill="none" xmlns="http://www.w3.org/2000/svg">
<g clip-path="url(#clip0_198_263)">
<path d="M34.9113 72C34.8703 71.9504 34.8127 71.9655 34.7609 71.9655C34.0265 71.9655 33.2971 71.8892 32.5663 71.8272C31.8355 71.7653 31.1263 71.6494 30.4063 71.5659C30.2357 71.5464 30.1111 71.4327 29.9909 71.3312C29.3105 70.7552 28.6531 70.159 28.0778 69.4728C27.5495 68.8454 27.0766 68.1733 26.6645 67.464C26.6414 67.4244 26.5925 67.3805 26.6277 67.3366C26.663 67.2927 26.7149 67.3258 26.7609 67.3366C28.0375 67.6865 29.3249 67.9889 30.6266 68.228C31.241 68.3427 31.8561 68.4461 32.472 68.5383C33.1013 68.6326 33.732 68.7176 34.3641 68.7888C34.9142 68.8515 35.4672 68.8853 36.0201 68.9393C36.7675 69.0113 37.5185 69.0408 38.2673 69.0884C39.8167 69.1877 41.3633 69.1517 42.9156 69.146C43.4693 69.146 44.0258 69.115 44.5788 69.074C45.2909 69.0228 46.0037 68.9789 46.715 68.9084C47.3429 68.8472 47.9714 68.7924 48.5971 68.7154C49.4525 68.6103 50.3071 68.4929 51.1553 68.336C51.4433 68.282 51.7399 68.2395 52.0416 68.2092C51.7061 68.372 51.3756 68.544 51.0336 68.6945C50.3942 68.9753 49.7534 69.2568 49.1047 69.5153C47.9508 69.9737 46.7728 70.3688 45.576 70.699C44.6285 70.9604 43.6716 71.1893 42.7053 71.3693C42.0681 71.4881 41.4288 71.5961 40.7844 71.676C40.0701 71.7639 39.3559 71.8503 38.6359 71.892C38.1895 71.9194 37.7445 71.964 37.296 71.9597C37.2441 71.9597 37.1865 71.9446 37.1455 71.9943L34.9113 72Z" fill="white"/>
<path d="M0.0216064 34.8933C0.0662464 34.8581 0.0576064 34.8077 0.0568864 34.7601C0.0432064 34.0668 0.113046 33.3763 0.172086 32.6873C0.234726 31.9673 0.335526 31.2473 0.444246 30.5273C0.611766 29.4185 0.831126 28.3207 1.10233 27.234C1.54242 25.4524 2.12263 23.7084 2.83753 22.0183C3.10681 21.3847 3.38473 20.7561 3.69001 20.1398C3.71593 20.0873 3.74545 20.0361 3.78217 19.9663C3.99025 20.5999 4.20769 21.2069 4.46257 21.8001C4.72969 22.4222 5.03281 23.0241 5.34889 23.6232C5.37381 23.662 5.38675 23.7072 5.38611 23.7533C5.38547 23.7994 5.37127 23.8443 5.34529 23.8824C4.82689 24.8184 4.33009 25.7709 3.86641 26.7372C3.33145 27.8539 2.82025 28.9807 2.34505 30.1212C1.72297 31.6217 1.15201 33.1387 0.653046 34.6795C0.451446 35.298 0.252006 35.9186 0.0864064 36.5515C0.0820853 36.6055 0.0591888 36.6564 0.0216064 36.6955V34.8933Z" fill="white"/>
<path d="M71.9647 35.3599C71.9337 35.9568 71.9971 36.5544 71.9294 37.1513C71.8984 37.4299 71.9114 37.7122 71.8963 37.9922C71.856 38.7014 71.784 39.4056 71.712 40.1112C71.5148 41.9247 71.1722 43.7195 70.6874 45.4781C70.2515 47.0948 69.6992 48.6779 69.035 50.215C68.6685 51.0617 68.2826 51.899 67.852 52.7141C67.0396 54.2659 66.1121 55.7547 65.0772 57.168L64.4925 57.96C64.4088 58.0621 64.3085 58.1495 64.1959 58.2185C63.4953 58.6973 62.7847 59.1617 62.0424 59.575C61.3728 59.9479 60.6931 60.3 59.9947 60.6168C59.2164 60.9703 58.4294 61.3022 57.6259 61.5945C56.2452 62.0979 54.8373 62.5232 53.4088 62.8682C52.2972 63.1346 51.1769 63.3571 50.0479 63.5436C49.3279 63.6624 48.6007 63.7596 47.8757 63.8546C47.3385 63.9266 46.7957 63.9569 46.2578 64.0058C45.4435 64.0778 44.6292 64.1347 43.8098 64.1592C43.5657 64.1671 43.3209 64.1794 43.0761 64.1851C42.5001 64.1995 41.9241 64.2362 41.3546 64.2139C40.7851 64.1916 40.23 64.206 39.6684 64.1808C39.186 64.1599 38.7021 64.1441 38.2205 64.1088C37.4378 64.049 36.6537 63.9914 35.8725 63.9079C35.2274 63.8388 34.5835 63.7622 33.9408 63.6782C33.2568 63.5882 32.5728 63.473 31.896 63.3535C30.5755 63.1217 29.2665 62.8356 27.9691 62.4953C26.987 62.2389 26.0133 61.9534 25.0481 61.6385C24.9177 61.596 24.8745 61.5312 24.8702 61.3937C24.8558 60.917 24.7982 60.4397 24.8083 59.963C24.8208 59.2123 24.8642 58.4623 24.9386 57.713C25.0808 56.368 25.3239 55.0357 25.6658 53.7271C26.0385 52.2862 26.4977 50.8691 27.041 49.4834C27.5371 48.2062 28.0908 46.9541 28.6862 45.72C29.256 44.5382 29.8663 43.3788 30.5172 42.2417C30.6331 42.0394 30.7505 41.8378 30.857 41.6304C30.865 41.608 30.8775 41.5875 30.8938 41.5702C30.91 41.5528 30.9296 41.539 30.9514 41.5295C30.9732 41.5201 30.9967 41.5152 31.0205 41.5152C31.0443 41.5152 31.0678 41.5201 31.0896 41.5296C32.2135 41.8262 33.3482 42.0754 34.4901 42.2921C35.2382 42.4361 35.9877 42.5657 36.7423 42.6701C37.2845 42.7421 37.8223 42.8393 38.3659 42.9113C38.826 42.9718 39.2882 43.015 39.7497 43.0632C40.3257 43.123 40.8981 43.1842 41.4727 43.2382C41.8226 43.2706 42.1733 43.2972 42.5246 43.3138C43.4073 43.3548 44.2893 43.4002 45.1728 43.4326C46.4781 43.4801 47.7835 43.4556 49.0889 43.4498C49.6181 43.4498 50.1509 43.4261 50.6801 43.3836C51.2561 43.3375 51.8321 43.3116 52.4081 43.2526C52.8221 43.2101 53.2389 43.1856 53.6529 43.1359C54.1908 43.0718 54.7329 43.0243 55.2657 42.9458C55.9015 42.853 56.5358 42.7536 57.168 42.637C57.7713 42.5254 58.3718 42.4051 58.968 42.2719C60.3033 41.978 61.6199 41.6046 62.9107 41.1538C63.7229 40.8658 64.5204 40.5434 65.3032 40.1868C66.4758 39.6565 67.5983 39.0218 68.657 38.2903C69.2652 37.8686 69.8455 37.408 70.3944 36.9115C70.8931 36.4644 71.3603 35.9832 71.7926 35.4715C71.8308 35.4262 71.8646 35.3779 71.902 35.3275L71.9647 35.3599Z" fill="white"/>
<path d="M64.0353 13.4777C63.8039 13.4796 63.5727 13.465 63.3434 13.4337C63.1036 13.415 62.866 13.4114 62.627 13.41C62.0366 13.4057 61.4455 13.3905 60.8558 13.4143C60.3208 13.4359 59.7873 13.4863 59.2538 13.5432C58.5612 13.6188 57.8736 13.7196 57.1874 13.8384C56.5884 13.9421 55.9944 14.0717 55.4032 14.2092C54.1883 14.4953 52.9899 14.8474 51.8133 15.264C50.764 15.6326 49.732 16.0452 48.7173 16.5017C48.0405 16.8069 47.3659 17.1151 46.7071 17.4578C45.4982 18.0878 44.3116 18.7589 43.1596 19.4889C42.1142 20.1513 41.0961 20.8526 40.1054 21.5928C39.4084 22.1148 38.7259 22.6555 38.0628 23.2214C37.3996 23.7873 36.7308 24.3828 36.0828 24.9847C35.393 25.6255 34.7306 26.2937 34.079 26.9712C33.4958 27.5781 32.9414 28.2125 32.3942 28.8525C31.6147 29.7645 30.8707 30.7046 30.1622 31.6728C29.574 32.4713 29.0102 33.2856 28.4796 34.1258C28.422 34.218 28.3759 34.2396 28.2636 34.1978C27.0036 33.7245 25.7654 33.2004 24.5491 32.6253C23.374 32.0695 22.2321 31.4546 21.1111 30.798C19.8135 30.0356 18.5633 29.1955 17.3671 28.2823C16.7695 27.8265 16.1863 27.3513 15.6276 26.8466C15.2863 26.5377 14.9594 26.2123 14.6138 25.9106C14.2207 25.5657 13.8794 25.1733 13.5216 24.7968C12.9309 24.1716 12.378 23.5119 11.8656 22.8211C11.7878 22.7174 11.8159 22.6382 11.8778 22.5497C12.3494 21.8736 12.8138 21.1939 13.2933 20.5214C13.8038 19.8014 14.3467 19.1037 14.9011 18.4161C15.3057 17.9121 15.7255 17.4261 16.1452 16.9365C17.128 15.7903 18.1778 14.7089 19.2564 13.6548C19.8676 13.0579 20.507 12.4905 21.1507 11.9268C22.1054 11.0945 23.0923 10.3037 24.1113 9.55439C25.1193 8.81519 26.1549 8.11918 27.2181 7.46638C28.4054 6.73343 29.6244 6.06166 30.8736 5.4403C32.2555 4.75525 33.6736 4.14571 35.1216 3.61438C36.5167 3.09908 37.9409 2.66633 39.3868 2.31838C40.4277 2.06223 41.481 1.85941 42.5426 1.7107C43.1856 1.6243 43.8271 1.53574 44.4758 1.4947C44.8084 1.4731 45.1411 1.44718 45.4744 1.4263C45.8566 1.40798 46.2388 1.46146 46.6012 1.58398C47.9011 1.99298 49.1786 2.46955 50.4288 3.01174C51.2256 3.35878 52.008 3.73486 52.776 4.13998C53.7268 4.64398 54.654 5.18902 55.5573 5.7751C56.6037 6.455 57.6145 7.18821 58.5856 7.97183C59.194 8.46215 59.7816 8.97983 60.3561 9.51046C60.9897 10.098 61.5974 10.7107 62.195 11.3321C62.8286 11.9901 63.4268 12.6813 63.9871 13.4028C64.0008 13.4201 64.0116 13.4395 64.0353 13.4777Z" fill="white"/>
<path d="M48.2911 37.6639C47.8663 37.6639 47.5668 37.6711 47.2673 37.6639C46.5624 37.6444 45.8575 37.6243 45.1541 37.5919C44.6242 37.5667 44.0943 37.5314 43.5701 37.4832C42.7342 37.4076 41.8982 37.3334 41.0659 37.229C39.8203 37.0735 38.5783 36.8935 37.3435 36.6667C36.4407 36.5004 35.5435 36.3196 34.6479 36.1166C34.4225 36.0655 34.4268 36.064 34.555 35.8862C35.059 35.1892 35.5889 34.5132 36.1332 33.8486C36.5299 33.3633 36.9475 32.8953 37.3608 32.4244C38.2666 31.3927 39.2386 30.425 40.2214 29.4724C40.8888 28.8244 41.5894 28.2052 42.2928 27.5961C43.0848 26.9145 43.8938 26.2548 44.7199 25.6168C45.2297 25.2223 45.7589 24.8536 46.2816 24.4764C47.3112 23.7261 48.384 23.04 49.4806 22.392C50.5586 21.7579 51.6655 21.1768 52.8012 20.6488C53.954 20.1072 55.141 19.6414 56.3544 19.2542C57.4103 18.914 58.4905 18.6545 59.5858 18.478C60.2928 18.37 61.002 18.3009 61.7162 18.2534C63.7491 18.1424 65.7814 18.4809 67.6685 19.2448C67.8766 19.3312 67.9666 19.494 68.0537 19.6668C68.6517 20.8527 69.1864 22.0696 69.6557 23.3121C70.0934 24.4764 70.4635 25.6622 70.794 26.861C70.8437 27.0432 70.794 27.1864 70.7177 27.3355C70.2522 28.2596 69.7021 29.1386 69.0746 29.9613C68.5308 30.668 67.9263 31.326 67.2682 31.9276C66.4974 32.6342 65.6602 33.2647 64.7683 33.8104C63.8658 34.3647 62.9228 34.8502 61.9474 35.2627C61.2192 35.5708 60.4795 35.8444 59.7283 36.0835C58.6016 36.4374 57.4551 36.7247 56.2946 36.9439C55.584 37.0843 54.864 37.1952 54.144 37.296C53.6609 37.3636 53.1735 37.3996 52.6882 37.4486C51.9819 37.5206 51.2755 37.5768 50.5656 37.602C50.3582 37.6092 50.1487 37.6207 49.9406 37.6286C49.351 37.6495 48.7591 37.6848 48.2911 37.6639Z" fill="white"/>
<path d="M8.54211 28.2197C8.56771 28.2408 8.59177 28.2636 8.61411 28.2881C9.21112 28.9981 9.84462 29.6765 10.512 30.3207C11.2536 31.0313 12.0139 31.7211 12.8059 32.377C14.091 33.4369 15.4373 34.4202 16.8379 35.3218C17.6551 35.851 18.4939 36.3478 19.3435 36.8237C20.1797 37.2917 21.0295 37.7331 21.8931 38.1478C22.932 38.6518 23.9811 39.1227 25.0611 39.5388C25.1935 39.59 25.2303 39.6368 25.1568 39.7793C24.7162 40.6304 24.2741 41.4821 23.8558 42.344C23.3309 43.424 22.8478 44.5248 22.3819 45.6344C21.7781 47.0806 21.2379 48.5504 20.7612 50.0436C20.2519 51.6286 19.8391 53.2429 19.525 54.8777C19.3752 55.6611 19.2521 56.4495 19.165 57.2422C19.1139 57.7037 19.0548 58.1652 19.0476 58.6311C19.0476 58.7794 19.0044 58.9263 19.0152 59.0768C19.0224 59.1833 18.972 59.1826 18.895 59.1437C18.3975 58.8932 17.8942 58.6527 17.4017 58.392C16.8473 58.0983 16.3015 57.7865 15.7536 57.482C15.0171 57.0723 14.2978 56.6331 13.5879 56.1788C12.5302 55.5034 11.4963 54.7942 10.4919 54.0389C9.85395 53.5589 9.22851 53.0616 8.61555 52.5471C7.93803 51.9783 7.28283 51.3872 6.63411 50.786C6.01779 50.2164 5.43531 49.6138 4.86651 48.9996C4.13393 48.2056 3.44162 47.3754 2.79219 46.512C2.64819 46.3198 2.67987 46.1261 2.69067 45.931C2.70723 45.6171 2.76267 45.3046 2.78931 44.9907C2.84475 44.3916 2.93331 43.7984 3.03411 43.2051C3.21339 42.1344 3.44595 41.0753 3.72387 40.0263C4.11411 38.5524 4.57995 37.1024 5.11131 35.6732C5.55339 34.4842 6.03339 33.3123 6.55131 32.1574C7.14099 30.8535 7.76091 29.5654 8.45211 28.3097C8.47371 28.2759 8.47947 28.2276 8.54211 28.2197Z" fill="white"/>
<path d="M30.4913 0.447121C30.2616 0.557281 30.0319 0.669601 29.8001 0.778321C28.4186 1.42776 27.0662 2.13336 25.7429 2.89512C24.4358 3.64632 23.1607 4.44696 21.9175 5.29704C20.7799 6.07608 19.6704 6.89328 18.5962 7.75872C17.8942 8.32392 17.203 8.90064 16.5298 9.5004C16.0747 9.90648 15.6312 10.3241 15.1826 10.7366C14.675 11.2039 14.1883 11.6914 13.7124 12.1889C13.0769 12.8527 12.4603 13.535 11.8627 14.2358C10.8986 15.3612 10.0145 16.5463 9.15912 17.7552C9.15192 17.7646 9.14328 17.7725 9.1152 17.8027C9.0792 17.7192 9.0432 17.6494 9.01728 17.5745C8.70075 16.6546 8.47291 15.7067 8.33688 14.7434C8.2728 14.2718 8.23464 13.7959 8.2152 13.3186C8.20296 13.0306 8.40024 12.8866 8.54712 12.713C9.08856 12.0744 9.65592 11.4602 10.2398 10.8598C10.9116 10.1693 11.6129 9.51336 12.3343 8.87616C13.104 8.19504 13.9068 7.56 14.7341 6.95016C15.6873 6.24914 16.6754 5.59694 17.6947 4.99608C18.5587 4.49208 19.4314 4.0068 20.3328 3.5748C21.5179 3.00473 22.732 2.49715 23.9702 2.05416C25.2538 1.60019 26.5614 1.21729 27.887 0.907201C28.71 0.712081 29.543 0.559441 30.3746 0.419761C30.4103 0.416883 30.4462 0.416883 30.4819 0.419761L30.4913 0.447121Z" fill="white"/>
<path d="M7.35193 57.7303C8.47225 58.5612 9.61561 59.3544 10.782 60.1099C11.7737 60.7551 12.7851 61.3683 13.8161 61.9495C14.9105 62.568 16.0207 63.1563 17.1526 63.7035C17.8251 64.0282 18.499 64.3515 19.1916 64.6395C19.2693 64.6656 19.3386 64.7123 19.3921 64.7745C19.4455 64.8367 19.4812 64.9122 19.4955 64.993C19.7373 66.0369 20.0934 67.0511 20.5575 68.017C20.6568 68.22 20.785 68.4101 20.8771 68.6693C15.5298 66.2035 10.8813 62.4439 7.35193 57.7303Z" fill="white"/>
</g>
<defs>
<clipPath id="clip0_198_263">
<rect width="72" height="72" fill="white"/>
</clipPath>
</defs>
</svg>
