<svg width="60" height="59" viewBox="0 0 60 59" fill="none" xmlns="http://www.w3.org/2000/svg">
<path d="M29.5559 0C23.7173 0 18.0098 1.73014 13.1552 4.97165C8.30058 8.21315 4.51686 12.8204 2.28253 18.2108C0.0481911 23.6013 -0.536413 29.5327 0.602642 35.2552C1.7417 40.9776 4.55325 46.234 8.68177 50.3596C12.8103 54.4853 18.0703 57.2949 23.7967 58.4331C29.5232 59.5714 35.4587 58.9872 40.8529 56.7544C46.2471 54.5216 50.8575 50.7406 54.1013 45.8893C57.3451 41.0381 59.0764 35.3345 59.0764 29.5C59.0764 21.6761 55.9662 14.1727 50.43 8.64035C44.8939 3.10803 37.3852 0 29.5559 0ZM29.5559 12.6429C30.1815 12.6429 30.793 12.8282 31.3131 13.1755C31.8333 13.5228 32.2387 14.0165 32.4781 14.594C32.7175 15.1716 32.7801 15.8071 32.658 16.4202C32.536 17.0333 32.2348 17.5965 31.7924 18.0385C31.3501 18.4806 30.7865 18.7816 30.173 18.9035C29.5594 19.0255 28.9235 18.9629 28.3455 18.7237C27.7676 18.4845 27.2736 18.0793 26.926 17.5596C26.5785 17.0398 26.393 16.4287 26.393 15.8036C26.393 14.9653 26.7262 14.1614 27.3194 13.5686C27.9126 12.9759 28.7171 12.6429 29.5559 12.6429ZM37.9903 46.6205H21.1215V41.8795H27.1837V29.7634H23.2301V25.0223H31.9281V41.8795H37.9903V46.6205Z" fill="#5099A5"/>
</svg>
