<svg width="65" height="72" viewBox="0 0 65 72" fill="none" xmlns="http://www.w3.org/2000/svg">
<path d="M57.7778 64.8V25.2H7.22222V64.8H57.7778ZM46.9444 0H54.1667V7.2H57.7778C59.6932 7.2 61.5302 7.95857 62.8847 9.30883C64.2391 10.6591 65 12.4904 65 14.4V64.8C65 66.7096 64.2391 68.5409 62.8847 69.8912C61.5302 71.2414 59.6932 72 57.7778 72H7.22222C5.30677 72 3.46977 71.2414 2.11534 69.8912C0.76091 68.5409 0 66.7096 0 64.8V14.4C0 10.404 3.21389 7.2 7.22222 7.2H10.8333V0H18.0556V7.2H46.9444V0ZM14.4444 32.4H21.6667V39.6H14.4444V32.4ZM43.3333 32.4H50.5556V39.6H43.3333V32.4ZM28.8889 46.8H36.1111V54H28.8889V46.8ZM43.3333 46.8H50.5556V54H43.3333V46.8Z" fill="white"/>
</svg>
