<svg width="104" height="72" viewBox="0 0 104 72" fill="none" xmlns="http://www.w3.org/2000/svg">
<path d="M84.6269 0C81.0812 3.41153 76.8632 6.03775 72.2454 7.70914C67.3761 8.57299 53.9009 2.29049 47.2609 8.70387C46.1542 9.8164 44.7872 10.9289 43.355 12.0414C40.2303 10.6672 35.4131 8.57299 31.8978 6.54426C28.3826 4.51554 19.5293 0 19.5293 0L0 22.9049C0 22.9049 4.81723 29.4492 7.81172 33.7684C9.76465 36.6479 12.1733 41.0325 13.7356 43.9775L11.5223 46.5952C10.9922 47.6537 10.8015 48.8513 10.9764 50.0232C11.1513 51.1952 11.6831 52.2838 12.4987 53.1394C13.4402 53.849 14.5857 54.2314 15.7623 54.2291C16.939 54.2267 18.0829 53.8397 19.0215 53.1263C18.6735 53.536 18.4101 54.0112 18.2467 54.5243C18.0833 55.0374 18.0232 55.578 18.0698 56.1147C18.1165 56.6514 18.269 57.1734 18.5185 57.6502C18.7679 58.127 19.1093 58.5491 19.5228 58.8918C20.5168 59.4755 21.6478 59.782 22.799 59.7797C23.9501 59.7774 25.0799 59.4664 26.0716 58.8788C25.3278 59.8107 24.9209 60.969 24.9173 62.1638C24.9138 63.3587 25.3139 64.5193 26.0521 65.4557C27.0117 65.7897 28.0351 65.8961 29.0424 65.7667C30.0497 65.6373 31.0136 65.2755 31.8588 64.7097C31.4377 65.7116 31.3286 66.8183 31.546 67.8838C31.7633 68.9493 32.2968 69.9236 33.0761 70.6781C34.177 71.1698 35.384 71.3725 36.5841 71.2672C37.7841 71.1619 38.938 70.7521 39.9374 70.076L43.2964 67.0198C46.3691 70.0956 50.6069 72 55.2874 72L55.6845 71.9935C57.227 71.8611 58.7046 71.3094 59.9591 70.3976C61.2136 69.4857 62.1978 68.248 62.8062 66.8169C63.7566 67.1834 64.8372 67.4321 65.983 67.4321C67.5193 67.4321 68.9449 66.9871 70.1492 66.2214C73.9574 63.6888 73.0461 61.7255 73.0461 61.7255C74.4002 62.3115 75.9044 62.4504 77.3421 62.1223C78.7798 61.7942 80.0768 61.016 81.0466 59.8997C82.0543 58.8633 82.6897 57.5189 82.8524 56.0789C83.0151 54.6389 82.6958 53.1855 81.9449 51.9484C81.9861 51.9731 82.0338 51.9845 82.0816 51.9811C84.8222 51.9811 87.2048 50.4628 88.4482 48.2247C89.06 46.634 89.2668 44.9147 89.0496 43.2232C88.8325 41.5318 88.1984 39.9216 87.2048 38.5392L87.2243 38.5719C92.5623 37.5248 92.3671 34.8417 94.971 30.9151C97.4365 27.7108 100.504 25.0248 104 23.0096L84.6269 0ZM84.3014 46.2025C81.4371 49.082 79.2238 47.8386 74.3415 44.1083C69.4592 40.3781 59.7596 33.3758 59.7596 33.3758C60.1567 35.3718 61.0746 37.106 62.3701 38.4868C64.4467 40.8362 70.6309 46.2025 73.5603 48.9511C75.3831 50.6526 80.0701 54.0556 77.336 56.6733C74.6019 59.291 72.4537 56.6733 67.9619 53.0085C63.4702 49.3438 53.4452 40.3127 53.4452 40.3127C53.3899 41.1784 53.518 42.046 53.821 42.8582C54.124 43.6705 54.595 44.4088 55.2028 45.0245C56.3095 46.3334 62.4937 52.3541 65.0976 55.1027C67.7016 57.8513 69.98 59.4874 67.7666 61.647C65.5533 63.8066 61.0616 60.4036 58.5879 57.8513C54.7471 54.1211 47.1307 47.1842 47.1307 47.1842L47.1242 47.531C47.1242 49.3896 47.7621 51.0911 48.8363 52.4392C50.7111 54.9129 54.3565 58.1196 56.5699 60.6064C58.7832 63.0933 60.0851 65.1874 56.5699 67.1507C53.0546 69.114 47.8468 64.2712 45.5684 61.9153V61.9022C45.5688 61.2558 45.3377 60.6309 44.9174 60.1418C44.1387 59.4166 43.178 58.9188 42.1387 58.702C41.0994 58.4852 40.0209 58.5577 39.0195 58.9115C39.4315 58.5406 39.7618 58.0873 39.9891 57.5805C40.2165 57.0737 40.3358 56.5246 40.3395 55.9687C40.3431 55.4128 40.2311 54.8622 40.0105 54.3524C39.7899 53.8426 39.4657 53.3849 39.0586 53.0085C38.2041 52.3577 37.1611 52.006 36.089 52.0072C35.017 52.0083 33.9748 52.3624 33.1217 53.0151C33.553 52.6009 33.886 52.0943 34.0959 51.5329C34.3058 50.9716 34.3872 50.3699 34.334 49.7726C34.2809 49.1753 34.0945 48.5978 33.7888 48.0828C33.4832 47.5678 33.066 47.1287 32.5684 46.798C31.403 46.0619 30.0355 45.7161 28.6624 45.8101C27.2893 45.9042 25.9811 46.4333 24.9259 47.3216C25.6312 46.4623 25.9789 45.3622 25.8964 44.2512C25.8139 43.1403 25.3076 42.1043 24.4832 41.3598C23.4587 40.4011 22.1531 39.8015 20.7615 39.6505C19.3699 39.4995 17.9671 39.8053 16.7626 40.5221L12.4337 33.1729C9.43916 28.3956 5.92389 23.4219 5.92389 23.4219L20.7661 5.29431C20.7661 5.29431 26.0391 8.56644 30.4006 11.0533C32.5488 12.2967 36.2594 13.9327 39.0586 15.2416C34.6319 18.5792 30.9214 21.7859 32.028 24.0109C34.0002 25.4341 36.3571 26.2191 38.7844 26.2612C41.2117 26.3033 43.5941 25.6005 45.6139 24.2465C48.2037 22.5157 51.2467 21.5978 54.3565 21.6092C56.6154 21.6092 58.7636 22.0804 60.7101 22.9376C64.3165 25.3852 70.9564 31.4059 77.0105 35.2016C84.6269 40.7642 86.1242 44.3636 84.3014 46.196V46.2025Z" fill="white"/>
</svg>
