<svg width="17" height="19" viewBox="0 0 17 19" fill="none" xmlns="http://www.w3.org/2000/svg">
<g clip-path="url(#clip0_533_18)">
<path d="M3.88135 1.57653C3.81863 1.48635 3.73945 1.41212 3.64909 1.35877C3.55873 1.30542 3.45924 1.27417 3.35724 1.26709C3.25524 1.26001 3.15306 1.27728 3.05748 1.31773C2.96191 1.35818 2.87513 1.4209 2.80291 1.50171L1.70429 2.73078C1.1911 3.30553 1.00197 4.11896 1.22616 4.83265C2.15664 7.78666 3.67023 10.4686 5.65466 12.6797C7.63296 14.8975 10.0326 16.5892 12.6757 17.6292C13.3142 17.8797 14.042 17.6683 14.5563 17.0948L15.6549 15.8669C15.7272 15.7862 15.7833 15.6892 15.8195 15.5824C15.8557 15.4756 15.8712 15.3614 15.8648 15.2474C15.8585 15.1334 15.8305 15.0222 15.7828 14.9212C15.7351 14.8202 15.6687 14.7317 15.588 14.6616L13.1368 12.5312C13.0506 12.4565 12.9503 12.4046 12.8436 12.3795C12.7368 12.3544 12.6264 12.3568 12.5205 12.3863L10.1937 13.0359C9.88307 13.1227 9.55767 13.1181 9.24915 13.0225C8.94062 12.927 8.65948 12.7438 8.4331 12.4908L5.8236 9.57315C5.59704 9.32026 5.43295 9.0061 5.34729 8.66127C5.26164 8.31644 5.25736 7.9527 5.33485 7.60546L5.9171 5.00484C5.94356 4.88656 5.94565 4.76311 5.92319 4.64379C5.90074 4.52448 5.85433 4.41243 5.78747 4.31609L3.88135 1.57653ZM2.00072 0.606339C2.18666 0.398466 2.41003 0.237181 2.65601 0.133193C2.90199 0.0292044 3.16495 -0.0151075 3.42743 0.00319932C3.68991 0.0215062 3.9459 0.102013 4.1784 0.239374C4.41091 0.376734 4.61461 0.567806 4.77597 0.799901L6.6821 3.53828C7.03166 4.04059 7.15491 4.6949 7.01679 5.3124L6.4356 7.91303C6.40555 8.04772 6.40717 8.18882 6.44031 8.32261C6.47345 8.4564 6.53698 8.57834 6.62472 8.67659L9.23529 11.5943C9.3233 11.6925 9.43259 11.7637 9.5525 11.8007C9.67241 11.8377 9.79886 11.8395 9.91954 11.8057L12.2453 11.1561C12.518 11.0799 12.8026 11.074 13.0776 11.1388C13.3526 11.2036 13.6108 11.3374 13.8327 11.5302L16.2829 13.6605C17.1637 14.4265 17.2444 15.8811 16.456 16.7611L15.3574 17.989C14.5712 18.8677 13.396 19.2537 12.3006 18.8226C9.49686 17.72 6.9512 15.9261 4.85247 13.5738C2.74797 11.2285 1.14287 8.38382 0.156224 5.25065C-0.2284 4.02753 0.116912 2.71296 0.903162 1.83421L2.00179 0.606339H2.00072Z" fill="white"/>
</g>
<defs>
<clipPath id="clip0_533_18">
<rect width="17" height="19" fill="white"/>
</clipPath>
</defs>
</svg>
