<svg width="24" height="21" viewBox="0 0 24 21" fill="none" xmlns="http://www.w3.org/2000/svg">
<path d="M23.7588 4.85917L20.9088 2.72417C20.7151 2.60329 20.5046 2.51017 20.2836 2.44767C20.0635 2.37842 19.8344 2.33992 19.6032 2.33333H11.4L12.3612 8.16667H19.6032C19.8 8.16667 20.046 8.1235 20.2824 8.05233C20.5188 7.98117 20.7468 7.88317 20.9076 7.777L23.7576 5.63967C23.9196 5.5335 24 5.39233 24 5.25C24 5.10767 23.9196 4.9665 23.7588 4.85917ZM10.2 0H9C8.84087 0 8.68826 0.0614581 8.57574 0.170854C8.46321 0.280251 8.4 0.428624 8.4 0.583333V4.66667H4.3968C4.1976 4.66667 3.9528 4.70983 3.7164 4.78217C3.4788 4.85217 3.252 4.949 3.0912 5.0575L0.2412 7.1925C0.0792 7.29867 0 7.441 0 7.58333C0 7.7245 0.0792 7.86567 0.2412 7.97417L3.0912 10.1115C3.252 10.2177 3.4788 10.3157 3.7164 10.3857C3.9528 10.4568 4.1976 10.5 4.3968 10.5H8.4V20.4167C8.4 20.5714 8.46321 20.7197 8.57574 20.8291C8.68826 20.9385 8.84087 21 9 21H10.2C10.3591 21 10.5117 20.9385 10.6243 20.8291C10.7368 20.7197 10.8 20.5714 10.8 20.4167V0.583333C10.8 0.428624 10.7368 0.280251 10.6243 0.170854C10.5117 0.0614581 10.3591 0 10.2 0Z" fill="white"/>
</svg>
