<svg width="51" height="53" viewBox="0 0 51 53" fill="none" xmlns="http://www.w3.org/2000/svg">
<path d="M25.5 0.148193C20.4566 0.148193 15.5264 1.68126 11.333 4.55352C7.13951 7.42579 3.87112 11.5082 1.94108 16.2846C0.0110487 21.061 -0.493936 26.3169 0.489987 31.3875C1.47391 36.4581 3.90255 41.1157 7.46879 44.7714C11.035 48.4271 15.5787 50.9167 20.5252 51.9253C25.4717 52.9339 30.5989 52.4162 35.2584 50.4378C39.9179 48.4593 43.9005 45.1089 46.7025 40.8103C49.5045 36.5116 51 31.4578 51 26.2879C51 19.3552 48.3134 12.7065 43.5312 7.80433C38.749 2.90219 32.263 0.148193 25.5 0.148193ZM25.5 11.3509C26.0404 11.3509 26.5686 11.5152 27.0179 11.8229C27.4672 12.1307 27.8174 12.5681 28.0242 13.0798C28.231 13.5916 28.2851 14.1547 28.1797 14.698C28.0742 15.2413 27.814 15.7403 27.4319 16.132C27.0498 16.5237 26.563 16.7904 26.033 16.8985C25.503 17.0065 24.9537 16.9511 24.4545 16.7391C23.9552 16.5271 23.5285 16.1681 23.2283 15.7076C22.9281 15.247 22.7679 14.7055 22.7679 14.1516C22.7679 13.4088 23.0557 12.6964 23.5681 12.1712C24.0805 11.646 24.7754 11.3509 25.5 11.3509ZM32.7857 41.4582H18.2143V37.2572H23.4509V26.5213H20.0357V22.3202H27.5491V37.2572H32.7857V41.4582Z" fill="white"/>
</svg>
