<svg width="164" height="70" viewBox="0 0 164 70" fill="none" xmlns="http://www.w3.org/2000/svg">
<g filter="url(#filter0_d_198_284)">
<path d="M29.2772 19.2826C28.0036 21.2189 26.8888 23.2524 25.9434 25.3639C26.6796 25.5199 27.4317 25.6602 28.2012 25.7896C29.032 23.9055 29.9851 22.0763 31.0547 20.3133C30.4182 20.0495 29.8204 19.7028 29.2772 19.2826Z" fill="white"/>
<path d="M23.856 58.9125C24.9152 59.3296 25.9977 59.6868 27.0981 59.9822C25.1941 54.9973 24.2084 49.7164 24.1878 44.3891C24.1955 39.6546 24.9514 34.9502 26.4282 30.4456C25.6761 30.3063 24.9204 30.1541 24.1609 29.9888C21.9821 36.686 20.4701 46.6828 23.856 58.9125Z" fill="white"/>
<path d="M26.9353 28.944C27.1438 28.3671 27.3587 27.8057 27.5767 27.2662C26.8247 27.1331 26.071 26.9855 25.3158 26.8234C25.0946 27.3629 24.8786 27.9211 24.668 28.4981C25.4064 28.6561 26.1621 28.8047 26.9353 28.944Z" fill="white"/>
<path d="M64.7671 25.7787C64.3302 26.1109 63.8192 26.3354 63.2767 26.4336C62.7342 26.5318 62.1757 26.5008 61.6478 26.3432C61.1199 26.1855 60.6376 25.9059 60.2412 25.5274C59.8448 25.1489 59.5456 24.6825 59.3685 24.167C59.1914 23.6514 59.1415 23.1016 59.223 22.5632C59.3045 22.0249 59.5149 21.5134 59.8369 21.0715C60.1589 20.6295 60.5831 20.2697 61.0743 20.022C61.5655 19.7744 62.1094 19.6459 62.661 19.6474C62.7463 19.6474 62.8301 19.6474 62.9138 19.6568C60.6489 14.3426 56.8723 9.79 52.0409 6.5495C47.2095 3.30901 41.5301 1.51951 35.6899 1.39744C29.8496 1.27537 24.0986 2.82597 19.1325 5.86167C14.1664 8.89738 10.1979 13.2882 7.70703 18.5029C11.5894 20.6451 15.6754 22.4062 19.9062 23.7609C21.2855 24.2022 22.7834 24.6279 24.3823 25.0084C25.4241 22.6286 26.6755 20.3438 28.1222 18.1801C26.9409 16.8019 26.2907 15.0562 26.2862 13.251C26.2818 11.4459 26.9234 9.6971 28.0979 8.31323C29.2724 6.92935 30.9044 5.99926 32.706 5.68699C34.5075 5.37473 36.363 5.70035 37.945 6.60644C39.527 7.51252 40.734 8.94085 41.3531 10.6395C41.9722 12.3382 41.9636 14.198 41.3289 15.891C40.6941 17.584 39.4739 19.0014 37.8836 19.8932C36.2932 20.785 34.4349 21.0939 32.6363 20.7655C31.5867 22.4594 30.6489 24.2183 29.8286 26.0313C36.531 26.9544 44.3219 26.7564 52.1066 23.7687C52.2977 23.7101 52.5041 23.7253 52.6843 23.8112C52.8645 23.897 53.0049 24.0471 53.0773 24.2312C53.1497 24.4152 53.1487 24.6195 53.0744 24.8029C53.0001 24.9862 52.858 25.1349 52.677 25.2189C47.5988 27.1459 42.2007 28.1206 36.7601 28.0927C36.1281 28.0927 35.4961 28.0802 34.8641 28.0553C32.9634 27.9801 31.0683 27.8031 29.1871 27.5251C28.9628 28.0677 28.7431 28.6291 28.5283 29.2092C35.9938 30.374 44.8165 30.4706 53.2553 27.4378C53.354 27.3959 53.4604 27.3743 53.5679 27.3744C53.6754 27.3744 53.7818 27.3961 53.8805 27.4382C53.9792 27.4802 54.0681 27.5417 54.1419 27.6189C54.2157 27.6961 54.2728 27.7873 54.3096 27.8869C54.3464 27.9866 54.3622 28.0927 54.3561 28.1986C54.3499 28.3045 54.3219 28.4081 54.2738 28.503C54.2257 28.5978 54.1585 28.682 54.0763 28.7504C53.994 28.8187 53.8985 28.8698 53.7956 28.9004C48.9229 30.6515 43.5746 31.5357 37.8708 31.5357C37.1925 31.5357 36.5078 31.5232 35.8168 31.4982C33.1938 31.3997 30.5796 31.1393 27.9895 30.7186C25.7048 37.6529 24.079 48.3389 28.9549 60.4298C30.9603 60.8341 33.0021 61.0374 35.0489 61.0364C51.7385 61.0364 65.2664 47.6839 65.2664 31.2144C65.2673 29.3913 65.1002 27.5719 64.7671 25.7787Z" fill="white"/>
<path d="M7.06703 19.9327C6.76999 20.6469 6.50139 21.3746 6.26123 22.1158C10.7067 24.2699 15.3381 26.028 20.1005 27.3691C21.0485 27.6373 22.066 27.8993 23.1198 28.1488C23.1198 28.1285 23.1341 28.1082 23.1404 28.088C23.3426 27.5287 23.5496 26.9871 23.7613 26.4632C22.3035 26.1076 20.8388 25.6949 19.3673 25.2251C15.1028 23.8594 10.9832 22.0869 7.06703 19.9327Z" fill="white"/>
<path d="M20.3057 42.7939C20.4668 38.3219 21.2439 33.8923 22.6157 29.6271C21.6245 29.39 20.6291 29.1302 19.6295 28.8474C14.879 27.507 10.2562 25.7597 5.81395 23.6252C4.03384 30.3364 4.67692 37.4498 7.63276 43.7439C10.5886 50.038 15.6728 55.1201 22.0121 58.1173C20.7119 53.1149 20.1374 47.9557 20.3057 42.7939Z" fill="white"/>
<path d="M80.9997 18.9473H76.3672V8.49989H80.4862C81.1143 8.48719 81.7404 8.57298 82.3412 8.75405C82.7861 8.87839 83.1902 9.11547 83.5135 9.44171C83.9734 9.94019 84.2276 10.5904 84.2261 11.2646C84.2261 12.0816 83.9586 12.6893 83.4235 13.0874C83.3048 13.1851 83.1779 13.2728 83.0443 13.3494C82.9732 13.3837 82.8483 13.4414 82.6666 13.5209C83.2728 13.6332 83.8241 13.9409 84.234 14.3957C84.6284 14.8561 84.836 15.4444 84.817 16.047C84.8219 16.7613 84.5507 17.4505 84.0586 17.9743C83.474 18.624 82.4544 18.9483 80.9997 18.9473ZM78.7293 12.7303H79.8495C80.5052 12.7303 80.9934 12.6617 81.311 12.5214C81.6286 12.381 81.785 12.0801 81.785 11.617C81.785 11.1538 81.6381 10.8482 81.3458 10.6985C81.0535 10.5488 80.5558 10.474 79.8621 10.474H78.7293V12.7303ZM78.7293 16.9748H80.3488C81.025 16.9748 81.5327 16.8926 81.8719 16.7284C82.2084 16.5631 82.3791 16.2403 82.3791 15.7569C82.3791 15.2736 82.199 14.9555 81.8403 14.7995C81.4816 14.6436 80.9097 14.5687 80.1228 14.5687H78.7293V16.9748Z" fill="white"/>
<path d="M94.6889 14.9272C94.7012 15.4748 94.5987 16.019 94.3877 16.5257C94.1767 17.0323 93.8618 17.4904 93.4628 17.8712C92.6444 18.6685 91.6174 19.0672 90.3818 19.0672C89.1463 19.0672 88.1188 18.6685 87.2993 17.8712C86.9006 17.4902 86.586 17.032 86.375 16.5255C86.164 16.0189 86.0613 15.4748 86.0732 14.9272C86.0617 14.3785 86.1646 13.8334 86.3755 13.3256C86.5864 12.8178 86.9009 12.3583 87.2993 11.9754C88.1177 11.1739 89.1452 10.7732 90.3818 10.7732C91.6185 10.7732 92.6455 11.1739 93.4628 11.9754C93.8616 12.358 94.1762 12.8176 94.3871 13.3254C94.5981 13.8332 94.7008 14.3785 94.6889 14.9272ZM88.3595 14.9272C88.3341 15.5147 88.5376 16.0894 88.9282 16.5333C89.1147 16.7293 89.3399 16.8855 89.5899 16.9923C89.8399 17.0991 90.1094 17.1541 90.3818 17.1541C90.6543 17.1541 90.9238 17.0991 91.1738 16.9923C91.4238 16.8855 91.649 16.7293 91.8355 16.5333C92.225 16.0888 92.4278 15.5143 92.4027 14.9272C92.4265 14.3379 92.2239 13.7615 91.8355 13.3133C91.6502 13.1153 91.4254 12.9572 91.1753 12.8491C90.9251 12.741 90.655 12.6852 90.3818 12.6852C90.1087 12.6852 89.8386 12.741 89.5884 12.8491C89.3383 12.9572 89.1135 13.1153 88.9282 13.3133C88.5382 13.7607 88.3349 14.3375 88.3595 14.9272Z" fill="white"/>
<path d="M101.669 15.2407V10.9152H103.962V18.955H101.669V17.8947C101.104 18.6806 100.375 19.074 99.4826 19.0751C98.6517 19.0975 97.8446 18.7993 97.2327 18.244C96.6281 17.6899 96.3253 16.8702 96.3242 15.7849V10.9152H98.6105V15.2812C98.6105 16.5162 99.0703 17.1337 99.9898 17.1337C100.21 17.1359 100.427 17.094 100.63 17.0107C100.833 16.9273 101.017 16.8042 101.17 16.6488C101.504 16.3275 101.67 15.8582 101.669 15.2407Z" fill="white"/>
<path d="M108.424 18.9472H106.152V7.85889H108.424V18.9472Z" fill="white"/>
<path d="M117.676 17.7762C116.814 18.6113 115.65 19.074 114.442 19.0626C113.207 19.0626 112.185 18.6863 111.377 17.9337C110.569 17.1811 110.165 16.1722 110.165 14.9071C110.165 13.643 110.576 12.6367 111.399 11.8882C112.186 11.1554 113.232 10.7539 114.314 10.7686C115.358 10.7417 116.375 11.0985 117.168 11.7697C117.949 12.4402 118.34 13.3581 118.34 14.5235V15.7195H112.405C112.441 15.9364 112.521 16.1438 112.641 16.3289C112.76 16.5139 112.918 16.6727 113.102 16.7954C113.49 17.0725 113.957 17.219 114.436 17.2133C114.802 17.2248 115.166 17.1603 115.505 17.0238C115.844 16.8873 116.15 16.682 116.403 16.4212L117.676 17.7762ZM115.496 13.0141C115.174 12.7538 114.768 12.6175 114.352 12.6305C113.91 12.6289 113.48 12.769 113.126 13.0296C112.945 13.1555 112.794 13.318 112.681 13.5062C112.569 13.6944 112.499 13.904 112.475 14.1212H116.047C116.035 13.9097 115.979 13.7029 115.885 13.5128C115.79 13.3227 115.658 13.1532 115.496 13.0141Z" fill="white"/>
<path d="M126.154 16.4446C126.167 16.8083 126.094 17.1699 125.94 17.5007C125.787 17.8314 125.557 18.1223 125.27 18.3501C124.679 18.8273 123.929 19.0664 123.021 19.0674C122.376 19.0612 121.736 18.9527 121.125 18.7462C120.481 18.538 119.88 18.2162 119.353 17.7966L120.353 16.3932C121.118 17.0119 122.073 17.3546 123.062 17.3646C123.307 17.3779 123.55 17.3182 123.759 17.1931C123.839 17.146 123.904 17.0792 123.949 16.9993C123.995 16.9194 124.018 16.8293 124.017 16.7378C124.017 16.5475 123.898 16.3729 123.661 16.2138C123.341 16.0177 122.994 15.867 122.631 15.7663C122.182 15.626 121.841 15.5075 121.601 15.4077C121.321 15.2828 121.052 15.1363 120.795 14.9695C120.501 14.7985 120.259 14.5517 120.097 14.2556C119.934 13.9595 119.856 13.6252 119.871 13.2886C119.864 12.9361 119.943 12.5873 120.101 12.2712C120.259 11.9551 120.492 11.681 120.779 11.472C121.386 11.0042 122.169 10.7703 123.127 10.7703C124.086 10.7703 125.045 11.0889 126.004 11.7261L125.156 13.22C124.449 12.7428 123.745 12.5037 123.043 12.5027C122.342 12.5016 121.991 12.6913 121.991 13.0718C121.992 13.1772 122.025 13.2799 122.084 13.3676C122.143 13.4553 122.227 13.5243 122.325 13.5661C122.68 13.7378 123.05 13.8777 123.431 13.984C123.946 14.14 124.312 14.2663 124.529 14.3505C124.799 14.4619 125.06 14.5943 125.309 14.7465C125.874 15.0865 126.156 15.6525 126.154 16.4446Z" fill="white"/>
<path d="M76.3672 35.685V25.2375H78.7293V33.6064H83.2418V35.6834L76.3672 35.685Z" fill="white"/>
<path d="M85.476 38.8534C84.6775 38.8534 83.9255 38.5343 83.2197 37.896L84.2483 36.2384C84.6328 36.6064 85.0267 36.7904 85.4301 36.7904C85.5401 36.7872 85.6475 36.7571 85.7427 36.7026C85.8379 36.6481 85.9178 36.5712 85.9752 36.4786C86.1207 36.292 86.2006 36.0637 86.2028 35.8283C86.2028 35.5996 85.1526 32.8698 83.0522 27.6388H85.476L87.451 32.652L89.4354 27.645H91.8576L88.0656 37.1194C87.8642 37.6423 87.501 38.0891 87.0275 38.3965C86.5674 38.6967 86.0275 38.8557 85.476 38.8534Z" fill="white"/>
<path d="M100.989 31.665C101.002 32.2139 100.9 32.7597 100.689 33.2677C100.478 33.7758 100.163 34.2351 99.7626 34.6168C98.9442 35.4141 97.9172 35.8128 96.6816 35.8128C95.446 35.8128 94.4185 35.4141 93.599 34.6168C92.8135 33.8315 92.373 32.7724 92.373 31.6689C92.373 30.5654 92.8135 29.5063 93.599 28.721C94.4175 27.9195 95.445 27.5188 96.6816 27.5188C97.9182 27.5188 98.9452 27.9195 99.7626 28.721C100.16 29.1027 100.475 29.5609 100.685 30.0674C100.896 30.5738 101 31.1176 100.989 31.665ZM94.6592 31.665C94.6338 32.2525 94.8373 32.8272 95.228 33.2711C95.4145 33.4671 95.6397 33.6233 95.8897 33.7301C96.1397 33.8369 96.4092 33.892 96.6816 33.892C96.954 33.892 97.2235 33.8369 97.4735 33.7301C97.7235 33.6233 97.9487 33.4671 98.1352 33.2711C98.5247 32.8266 98.7276 32.2522 98.7024 31.665C98.7263 31.0757 98.5237 30.4993 98.1352 30.0511C97.95 29.8531 97.7252 29.695 97.475 29.5869C97.2248 29.4788 96.9547 29.423 96.6816 29.423C96.4085 29.423 96.1384 29.4788 95.8882 29.5869C95.638 29.695 95.4132 29.8531 95.228 30.0511C94.838 30.4985 94.6347 31.0754 94.6592 31.665Z" fill="white"/>
<path d="M104.986 31.2019V35.6849H102.715V27.6451H104.986V28.5355C105.674 27.8483 106.446 27.5047 107.304 27.5047C107.707 27.4958 108.107 27.571 108.479 27.7255C108.851 27.88 109.185 28.1103 109.46 28.4014C110.042 28.9981 110.332 29.7949 110.331 30.7918V35.6787H108.06V31.1426C108.06 29.9056 107.601 29.2876 106.683 29.2886C106.462 29.287 106.242 29.3292 106.038 29.4128C105.833 29.4964 105.648 29.6196 105.493 29.7751C105.155 30.0984 104.986 30.574 104.986 31.2019Z" fill="white"/>
<path d="M114.706 31.2019V35.6849H112.437V27.6451H114.706V28.5355C115.394 27.8483 116.166 27.5048 117.022 27.5048C117.426 27.4957 117.826 27.5709 118.198 27.7255C118.57 27.88 118.905 28.1103 119.18 28.4014C119.76 28.9981 120.05 29.7949 120.051 30.7918V35.6787H117.782V31.1426C117.782 29.9056 117.322 29.2876 116.403 29.2886C116.182 29.2871 115.963 29.3294 115.759 29.413C115.555 29.4965 115.37 29.6197 115.215 29.7751C114.875 30.0984 114.706 30.574 114.706 31.2019Z" fill="white"/>
<path d="M129.084 35.6849H126.943V34.7135C126.356 35.4411 125.632 35.805 124.769 35.805C123.977 35.8297 123.204 35.566 122.597 35.0643C122.308 34.8226 122.08 34.5195 121.927 34.1778C121.775 33.8361 121.704 33.4647 121.718 33.0918C121.718 32.2695 122.021 31.6546 122.627 31.2471C123.232 30.8396 124.06 30.6353 125.11 30.6343H126.807V30.5891C126.807 29.7314 126.348 29.3032 125.428 29.3042C125.002 29.3099 124.579 29.388 124.18 29.535C123.78 29.6685 123.405 29.8627 123.066 30.1104L122.052 28.6618C123.115 27.8964 124.401 27.4926 125.717 27.511C126.706 27.511 127.514 27.7547 128.139 28.2423C128.765 28.7298 129.08 29.5033 129.084 30.5626V35.6849ZM126.791 32.6209V32.2326H125.369C124.462 32.2326 124.008 32.5117 124.008 33.0699C124.001 33.1987 124.027 33.3271 124.084 33.4432C124.141 33.5593 124.227 33.6594 124.333 33.7342C124.611 33.905 124.937 33.9862 125.264 33.9666C125.652 33.9719 126.03 33.8422 126.332 33.6001C126.481 33.484 126.6 33.3348 126.68 33.1647C126.76 32.9945 126.798 32.8082 126.791 32.6209Z" fill="white"/>
<path d="M131.388 26.6207C131.164 26.4043 131.024 26.118 130.991 25.8108C130.958 25.5037 131.034 25.1947 131.206 24.9366C131.378 24.6786 131.635 24.4875 131.934 24.3961C132.233 24.3046 132.555 24.3185 132.845 24.4352C133.135 24.552 133.374 24.7645 133.523 25.0363C133.672 25.3081 133.72 25.6225 133.66 25.9256C133.6 26.2288 133.435 26.5019 133.193 26.6984C132.952 26.8948 132.649 27.0024 132.336 27.0027C132.16 27.0065 131.985 26.9746 131.822 26.9088C131.658 26.8431 131.511 26.7451 131.388 26.6207ZM133.469 35.685H131.198V27.6452H133.469V35.685Z" fill="white"/>
<path d="M141.797 33.1824C141.809 33.546 141.736 33.9076 141.583 34.2384C141.429 34.5692 141.199 34.8601 140.912 35.0879C140.321 35.565 139.571 35.8041 138.663 35.8051C138.018 35.7989 137.378 35.6905 136.767 35.4839C136.123 35.2757 135.523 34.954 134.995 34.5343L135.995 33.1309C136.76 33.7496 137.716 34.0923 138.704 34.1024C138.949 34.1149 139.191 34.0552 139.401 33.9309C139.481 33.8838 139.546 33.8169 139.591 33.7371C139.637 33.6572 139.66 33.567 139.659 33.4755C139.659 33.2853 139.54 33.1106 139.303 32.9516C138.983 32.7554 138.636 32.6048 138.273 32.5041C137.824 32.3637 137.483 32.2452 137.243 32.1454C136.962 32.0222 136.692 31.8773 136.434 31.7119C136.14 31.5408 135.898 31.2938 135.735 30.9974C135.572 30.7009 135.494 30.3663 135.51 30.0294C135.503 29.6773 135.582 29.3287 135.74 29.0129C135.898 28.6971 136.131 28.4233 136.418 28.2144C137.025 27.7466 137.808 27.5127 138.766 27.5127C139.725 27.5127 140.684 27.8313 141.643 28.4686L140.795 29.9624C140.088 29.4852 139.384 29.2461 138.682 29.2451C137.981 29.2441 137.63 29.4338 137.63 29.8142C137.632 29.9193 137.664 30.0217 137.723 30.1092C137.782 30.1966 137.866 30.2653 137.963 30.307C138.319 30.478 138.689 30.6178 139.069 30.7249C139.585 30.8808 139.951 31.0071 140.168 31.0913C140.438 31.2027 140.699 31.3352 140.948 31.4874C141.515 31.8252 141.798 32.3902 141.797 33.1824Z" fill="white"/>
<path d="M150.64 34.5185C149.779 35.3526 148.618 35.8153 147.412 35.8049C146.174 35.8049 145.152 35.4286 144.345 34.676C143.539 33.9233 143.134 32.916 143.13 31.654C143.13 30.3899 143.542 29.3836 144.364 28.6352C145.152 27.9021 146.197 27.5005 147.279 27.5156C148.323 27.4886 149.34 27.8454 150.133 28.5167C150.914 29.1841 151.306 30.1004 151.307 31.2657V32.4617H145.371C145.406 32.6786 145.486 32.886 145.606 33.0711C145.726 33.2562 145.883 33.415 146.068 33.5377C146.455 33.8145 146.922 33.961 147.4 33.9556C147.766 33.9671 148.13 33.9026 148.469 33.7661C148.808 33.6297 149.115 33.4243 149.368 33.1634L150.64 34.5185ZM148.46 29.7516C148.139 29.4901 147.733 29.3521 147.317 29.3634C146.872 29.3614 146.439 29.5033 146.083 29.7672C145.903 29.8932 145.751 30.0557 145.638 30.2439C145.526 30.432 145.455 30.6416 145.431 30.8588H149.005C148.993 30.6478 148.939 30.4412 148.845 30.2512C148.751 30.0611 148.62 29.8913 148.46 29.7516Z" fill="white"/>
<path d="M159.12 33.1822C159.132 33.5453 159.059 33.9063 158.905 34.2365C158.751 34.5667 158.522 34.8571 158.235 35.0846C157.644 35.5617 156.894 35.8008 155.985 35.8018C155.34 35.7954 154.7 35.6869 154.089 35.4806C153.445 35.2721 152.845 34.9504 152.318 34.531L153.318 33.1276C154.083 33.7466 155.039 34.0893 156.028 34.0991C156.272 34.1112 156.515 34.0515 156.724 33.9275C156.804 33.8804 156.87 33.8136 156.915 33.7338C156.96 33.6539 156.983 33.5637 156.982 33.4722C156.982 33.282 156.864 33.1073 156.627 32.9483C156.306 32.7521 155.959 32.6015 155.596 32.5008C155.148 32.3604 154.806 32.2419 154.566 32.1421C154.285 32.0189 154.015 31.874 153.757 31.7086C153.463 31.5375 153.221 31.2905 153.058 30.9941C152.895 30.6976 152.818 30.363 152.833 30.0261C152.826 29.674 152.906 29.3254 153.064 29.0096C153.222 28.6938 153.454 28.42 153.741 28.2111C154.346 27.7433 155.129 27.5094 156.089 27.5094C157.05 27.5094 158.009 27.828 158.967 28.4653L158.118 29.9591C157.411 29.4819 156.707 29.2428 156.006 29.2418C155.304 29.2408 154.953 29.4305 154.953 29.8109C154.955 29.916 154.987 30.0184 155.046 30.1059C155.105 30.1933 155.189 30.262 155.287 30.3037C155.642 30.4747 156.012 30.6145 156.393 30.7216C156.908 30.8775 157.274 31.0038 157.491 31.088C157.761 31.1994 158.022 31.3319 158.271 31.4841C158.836 31.824 159.119 32.3901 159.12 33.1822Z" fill="white"/>
<path d="M82.9683 48.8066C83.2984 49.1996 83.4675 49.7002 83.4423 50.21C83.4423 50.92 83.179 51.4658 82.6523 51.8473C82.1257 52.2288 81.3462 52.4201 80.3139 52.4211H76.5425V44.0538H80.0801C80.9996 44.0538 81.7164 44.2394 82.2305 44.6105C82.4816 44.7906 82.6832 45.0297 82.8173 45.306C82.9514 45.5823 83.0136 45.8872 82.9983 46.1932C83.013 46.6269 82.8788 47.0527 82.6176 47.4017C82.3525 47.735 81.991 47.9808 81.5811 48.1065C82.1107 48.1776 82.5999 48.4245 82.9683 48.8066ZM77.1603 44.5731V47.9085H80.0548C80.7985 47.9085 81.3699 47.7671 81.7691 47.4843C81.9566 47.3343 82.1077 47.1449 82.2116 46.9299C82.3154 46.7149 82.3693 46.4797 82.3693 46.2416C82.3693 46.0034 82.3154 45.7682 82.2116 45.5532C82.1077 45.3382 81.9566 45.1488 81.7691 44.9988C81.3688 44.715 80.7974 44.5731 80.0548 44.5731H77.1603ZM82.1941 51.4653C82.6155 51.1835 82.8261 50.7475 82.8261 50.157C82.8261 49.5665 82.6155 49.132 82.1941 48.8534C81.7728 48.5748 81.1487 48.4355 80.3218 48.4355H77.1618V51.891H80.3218C81.1445 51.8951 81.7686 51.7553 82.1941 51.4715V51.4653Z" fill="white"/>
<path d="M86.5062 51.562C85.9143 50.9476 85.6178 50.051 85.6167 48.8721V44.0538H86.2345V48.8487C86.2345 49.8768 86.4725 50.6456 86.9486 51.155C87.4247 51.6643 88.1152 51.9211 89.02 51.9253C89.9175 51.9253 90.6021 51.6701 91.074 51.1596C91.5459 50.6492 91.7866 49.8789 91.7961 48.8487V44.0538H92.4138V48.8721C92.4138 50.051 92.1152 50.9476 91.518 51.562C90.9208 52.1763 90.0849 52.483 89.0105 52.482C87.9351 52.482 87.1003 52.1753 86.5062 51.562Z" fill="white"/>
<path d="M101.388 48.2748H101.982V51.406C101.596 51.7658 101.135 52.0391 100.631 52.2074C100.092 52.3926 99.5245 52.4854 98.9534 52.4819C98.1615 52.4938 97.3797 52.3048 96.683 51.933C96.0255 51.5788 95.479 51.0535 95.103 50.4142C94.7258 49.7494 94.5278 49.0002 94.5278 48.2382C94.5278 47.4763 94.7258 46.727 95.103 46.0622C95.4795 45.4232 96.0259 44.8981 96.683 44.5434C97.3838 44.1705 98.17 43.9815 98.9661 43.9945C99.5507 43.9867 100.132 44.085 100.68 44.2846C101.184 44.4693 101.641 44.761 102.019 45.1391L101.632 45.5445C101.296 45.2069 100.888 44.948 100.437 44.7867C99.9678 44.6258 99.4738 44.5467 98.9771 44.5528C98.2904 44.5438 97.6128 44.7097 97.01 45.0346C96.4367 45.3412 95.9604 45.7983 95.6338 46.3553C95.3004 46.928 95.129 47.5786 95.1377 48.239C95.1299 48.8962 95.3036 49.5431 95.6402 50.1102C95.9689 50.6666 96.4439 51.125 97.0148 51.4371C97.6144 51.7665 98.291 51.9348 98.9771 51.9252C99.9472 51.9252 100.751 51.67 101.388 51.1596V48.2748Z" fill="white"/>
<path d="M110.584 51.8723V52.4227H104.738V44.0538H110.408V44.6043H105.352V47.9038H109.871V48.4418H105.352V51.8723H110.584Z" fill="white"/>
<path d="M115.381 49.5411V52.4227H114.763V49.5411L111.347 44.0538H112.02L115.085 48.9797L118.149 44.0538H118.792L115.381 49.5411Z" fill="white"/>
<path d="M127.755 52.7767C127.226 52.596 126.746 52.2972 126.354 51.9034L126.651 51.4185C127.013 51.7789 127.453 52.0553 127.937 52.2278C128.478 52.4366 129.054 52.5425 129.635 52.5396C130.498 52.5396 131.148 52.378 131.586 52.0547C131.793 51.914 131.962 51.7251 132.076 51.5047C132.191 51.2844 132.249 51.0394 132.245 50.7916C132.254 50.6174 132.228 50.4432 132.168 50.2791C132.108 50.115 132.016 49.9643 131.896 49.8358C131.653 49.5911 131.358 49.4035 131.032 49.2869C130.575 49.1274 130.108 48.9956 129.635 48.8924C129.094 48.769 128.561 48.6128 128.039 48.4246C127.645 48.2765 127.294 48.0331 127.019 47.7167C126.724 47.3554 126.574 46.8997 126.598 46.4365C126.595 46.0139 126.717 45.5995 126.948 45.2436C127.209 44.8582 127.58 44.5581 128.014 44.3813C128.582 44.1545 129.192 44.0482 129.804 44.0694C130.303 44.0698 130.799 44.1429 131.277 44.2862C131.724 44.4141 132.147 44.6121 132.53 44.8725L132.285 45.3964C131.92 45.1467 131.516 44.9571 131.089 44.835C130.672 44.7098 130.24 44.6452 129.804 44.6432C128.969 44.6432 128.337 44.809 127.908 45.1407C127.704 45.2885 127.538 45.4826 127.426 45.7068C127.313 45.931 127.257 46.1786 127.262 46.4287C127.253 46.6031 127.28 46.7775 127.34 46.9418C127.4 47.1061 127.492 47.2571 127.611 47.3861C127.855 47.6298 128.151 47.8168 128.477 47.9334C128.935 48.0939 129.401 48.2292 129.874 48.3388C130.413 48.4622 130.945 48.6185 131.465 48.8066C131.854 48.9563 132.201 49.1946 132.479 49.5021C132.774 49.8543 132.924 50.3028 132.899 50.7589C132.903 51.1805 132.779 51.5937 132.544 51.9455C132.272 52.3298 131.892 52.6265 131.451 52.7985C130.876 53.0274 130.26 53.1363 129.642 53.1181C128.997 53.1196 128.357 53.0039 127.755 52.7767Z" fill="white"/>
<path d="M136.014 52.1325C135.382 51.4786 135.066 50.5223 135.066 49.2634V44.1285H135.72V49.2431C135.72 50.3398 135.974 51.16 136.483 51.7037C136.992 52.2474 137.729 52.5197 138.695 52.5208C139.653 52.5208 140.385 52.2484 140.893 51.7037C141.401 51.159 141.655 50.3388 141.655 49.2431V44.1285H142.315V49.2743C142.315 50.5321 141.996 51.4885 141.359 52.1434C140.722 52.7983 139.83 53.1258 138.683 53.1258C137.537 53.1185 136.647 52.7874 136.014 52.1325Z" fill="white"/>
<path d="M145.388 44.1287H148.968C149.837 44.1126 150.697 44.3097 151.47 44.7026C152.175 45.0645 152.764 45.6144 153.17 46.2899C153.567 46.9938 153.776 47.7863 153.776 48.5923C153.776 49.3982 153.567 50.1908 153.17 50.8946C152.764 51.5698 152.175 52.1196 151.47 52.482C150.697 52.8756 149.838 53.0728 148.968 53.0558H145.388V44.1287ZM148.918 52.4695C149.685 52.4857 150.444 52.3171 151.13 51.9783C151.745 51.6712 152.257 51.1952 152.604 50.6077C152.942 49.9883 153.119 49.2958 153.119 48.5923C153.119 47.8887 152.942 47.1962 152.604 46.5769C152.257 45.9893 151.745 45.5133 151.13 45.2062C150.444 44.8674 149.685 44.6988 148.918 44.715H146.049V52.4695H148.918Z" fill="white"/>
</g>
<defs>
<filter id="filter0_d_198_284" x="-1" y="0" width="166" height="70" filterUnits="userSpaceOnUse" color-interpolation-filters="sRGB">
<feFlood flood-opacity="0" result="BackgroundImageFix"/>
<feColorMatrix in="SourceAlpha" type="matrix" values="0 0 0 0 0 0 0 0 0 0 0 0 0 0 0 0 0 0 127 0" result="hardAlpha"/>
<feOffset dy="4"/>
<feGaussianBlur stdDeviation="2"/>
<feComposite in2="hardAlpha" operator="out"/>
<feColorMatrix type="matrix" values="0 0 0 0 0 0 0 0 0 0 0 0 0 0 0 0 0 0 0.25 0"/>
<feBlend mode="normal" in2="BackgroundImageFix" result="effect1_dropShadow_198_284"/>
<feBlend mode="normal" in="SourceGraphic" in2="effect1_dropShadow_198_284" result="shape"/>
</filter>
</defs>
</svg>
