<svg width="280" height="110" viewBox="0 0 280 110" fill="none" xmlns="http://www.w3.org/2000/svg">
<path d="M46.5667 34.211C44.3097 37.6463 42.3341 41.2543 40.6587 45.0005C41.9635 45.2771 43.2963 45.5261 44.6599 45.7557C46.1322 42.4129 47.8213 39.1675 49.7167 36.0397C48.5889 35.5716 47.5295 34.9566 46.5667 34.211V34.211Z" fill="#5099A5"/>
<path d="M36.9602 104.522C38.8374 105.262 40.7557 105.896 42.7058 106.42C39.3315 97.5758 37.5848 88.2066 37.5482 78.7548C37.5619 70.3549 38.9015 62.0085 41.5186 54.0165C40.1858 53.7694 38.8465 53.4992 37.5006 53.2059C33.6394 65.0882 30.9598 82.8244 36.9602 104.522Z" fill="#5099A5"/>
<path d="M42.4174 51.3523C42.787 50.3287 43.1678 49.3327 43.5542 48.3755C42.2214 48.1395 40.8858 47.8776 39.5474 47.5898C39.1554 48.5471 38.7727 49.5375 38.3994 50.5611C39.7079 50.8414 41.0473 51.1052 42.4174 51.3523Z" fill="#5099A5"/>
<path d="M109.46 45.7364C108.686 46.3258 107.781 46.7241 106.819 46.8983C105.858 47.0725 104.868 47.0175 103.933 46.7379C102.997 46.4582 102.142 45.9621 101.44 45.2905C100.737 44.619 100.207 43.7916 99.8933 42.8769C99.5795 41.9622 99.4911 40.9868 99.6354 40.0316C99.7798 39.0764 100.153 38.169 100.723 37.3849C101.294 36.6007 102.046 35.9624 102.916 35.523C103.787 35.0836 104.751 34.8557 105.728 34.8584C105.879 34.8584 106.028 34.8584 106.176 34.875C102.162 25.4466 95.4697 17.3694 86.9077 11.6201C78.3456 5.87084 68.281 2.69591 57.9312 2.47934C47.5813 2.26276 37.3897 5.01382 28.5889 10.3998C19.7882 15.7857 12.7555 23.5758 8.34131 32.8277C15.2215 36.6284 22.4624 39.7529 29.9601 42.1565C32.4045 42.9394 35.0589 43.6947 37.8925 44.3697C39.7386 40.1476 41.9563 36.0938 44.5201 32.2551C42.4266 29.8098 41.2743 26.7127 41.2665 23.5099C41.2586 20.3072 42.3956 17.2045 44.4771 14.7493C46.5585 12.294 49.4506 10.6439 52.6432 10.0898C55.8359 9.53582 59.124 10.1135 61.9276 11.7211C64.7312 13.3287 66.8702 15.8628 67.9673 18.8766C69.0644 21.8903 69.0492 25.19 67.9243 28.1937C66.7994 31.1975 64.6371 33.7122 61.8187 35.2944C59.0004 36.8767 55.7071 37.4247 52.5197 36.842C50.6598 39.8473 48.9978 42.968 47.5441 46.1845C59.4217 47.8223 73.2285 47.471 87.0241 42.1703C87.3627 42.0664 87.7286 42.0933 88.0479 42.2456C88.3672 42.3979 88.6161 42.6642 88.7444 42.9908C88.8727 43.3174 88.8708 43.6799 88.7391 44.0051C88.6074 44.3304 88.3558 44.5941 88.0349 44.7432C79.0355 48.1622 69.4693 49.8914 59.8277 49.8419C58.7077 49.8419 57.5877 49.8198 56.4677 49.7755C53.0995 49.6421 49.7411 49.3281 46.4073 48.8349C46.0097 49.7976 45.6205 50.7936 45.2397 51.8227C58.4697 53.8893 74.1049 54.0608 89.0597 48.6799C89.2347 48.6056 89.4232 48.5673 89.6138 48.5674C89.8043 48.5675 89.9927 48.6061 90.1677 48.6807C90.3426 48.7553 90.5002 48.8644 90.631 49.0013C90.7617 49.1382 90.8628 49.3 90.9281 49.4768C90.9934 49.6537 91.0214 49.8418 91.0105 50.0298C90.9996 50.2177 90.95 50.4014 90.8648 50.5698C90.7795 50.7381 90.6604 50.8875 90.5146 51.0087C90.3689 51.13 90.1997 51.2206 90.0173 51.2749C81.3821 54.3818 71.9041 55.9504 61.7961 55.9504C60.594 55.9504 59.3806 55.9283 58.1561 55.884C53.5077 55.7092 48.8749 55.2472 44.2849 54.5007C40.2361 66.8035 37.3549 85.7625 45.9957 107.214C49.5497 107.932 53.1679 108.292 56.7953 108.29C86.3717 108.29 110.345 84.6006 110.345 55.3805C110.347 52.1459 110.051 48.9179 109.46 45.7364V45.7364Z" fill="#5099A5"/>
<path d="M7.2073 35.3644C6.6809 36.6315 6.2049 37.9226 5.7793 39.2376C13.6573 43.0594 21.865 46.1787 30.3045 48.558C31.9845 49.0339 33.7877 49.4987 35.6553 49.9413C35.6553 49.9053 35.6805 49.8694 35.6917 49.8334C36.0501 48.8411 36.4169 47.8802 36.7921 46.9507C34.2086 46.3199 31.613 45.5877 29.0053 44.7541C21.4479 42.3311 14.1474 39.1864 7.2073 35.3644V35.3644Z" fill="#5099A5"/>
<path d="M30.6683 75.9247C30.9537 67.9904 32.3309 60.1314 34.7619 52.5641C33.0053 52.1436 31.2413 51.6825 29.4699 51.1808C21.0513 48.8028 12.8591 45.7026 4.98666 41.9157C1.83204 53.8226 2.97168 66.4431 8.20988 77.6101C13.4481 88.7771 22.458 97.7937 33.6923 103.111C31.3881 94.236 30.37 85.0826 30.6683 75.9247V75.9247Z" fill="#5099A5"/>
<path d="M138.228 33.6161H130.018V15.0804H137.318C138.431 15.0578 139.54 15.21 140.605 15.5313C141.393 15.7519 142.11 16.1725 142.682 16.7514C143.497 17.6357 143.948 18.7894 143.945 19.9854C143.945 21.4351 143.471 22.5131 142.523 23.2195C142.313 23.3929 142.088 23.5484 141.851 23.6843C141.725 23.7451 141.504 23.8475 141.182 23.9886C142.256 24.1878 143.233 24.7337 143.959 25.5406C144.658 26.3576 145.026 27.4012 144.992 28.4704C145.001 29.7376 144.521 30.9605 143.648 31.8898C142.612 33.0425 140.806 33.618 138.228 33.6161ZM134.204 22.586H136.189C137.351 22.586 138.216 22.4642 138.779 22.2152C139.342 21.9663 139.619 21.4323 139.619 20.6107C139.619 19.789 139.359 19.2468 138.841 18.9812C138.323 18.7156 137.441 18.5828 136.212 18.5828H134.204V22.586ZM134.204 30.1165H137.074C138.272 30.1165 139.172 29.9707 139.773 29.6793C140.37 29.3861 140.672 28.8134 140.672 27.9558C140.672 27.0982 140.353 26.5338 139.717 26.2571C139.082 25.9805 138.068 25.8477 136.674 25.8477H134.204V30.1165Z" fill="#5099A5"/>
<path d="M162.487 26.4837C162.509 27.4553 162.327 28.4209 161.953 29.3197C161.579 30.2186 161.021 31.0313 160.314 31.707C158.864 33.1216 157.044 33.8289 154.854 33.8289C152.664 33.8289 150.843 33.1216 149.391 31.707C148.685 31.0309 148.127 30.2181 147.753 29.3193C147.379 28.4206 147.197 27.4552 147.218 26.4837C147.198 25.5103 147.38 24.5431 147.754 23.6422C148.128 22.7413 148.685 21.9259 149.391 21.2467C150.842 19.8247 152.663 19.1137 154.854 19.1137C157.045 19.1137 158.865 19.8247 160.314 21.2467C161.021 21.9255 161.578 22.7408 161.952 23.6418C162.326 24.5428 162.508 25.5102 162.487 26.4837V26.4837ZM151.27 26.4837C151.225 27.526 151.586 28.5456 152.278 29.3333C152.608 29.681 153.008 29.9581 153.451 30.1476C153.894 30.337 154.371 30.4348 154.854 30.4348C155.337 30.4348 155.814 30.337 156.257 30.1476C156.701 29.9581 157.1 29.681 157.43 29.3333C158.12 28.5447 158.48 27.5254 158.435 26.4837C158.478 25.4382 158.118 24.4155 157.43 23.6204C157.102 23.269 156.703 22.9886 156.26 22.7968C155.817 22.605 155.338 22.506 154.854 22.506C154.37 22.506 153.891 22.605 153.448 22.7968C153.005 22.9886 152.606 23.269 152.278 23.6204C151.587 24.4141 151.227 25.4376 151.27 26.4837V26.4837Z" fill="#5099A5"/>
<path d="M174.857 27.04V19.3657H178.92V33.6299H174.857V31.7487C173.855 33.143 172.563 33.8411 170.982 33.8429C169.509 33.8827 168.079 33.3537 166.995 32.3684C165.923 31.3853 165.387 29.931 165.385 28.0055V19.3657H169.436V27.1119C169.436 29.303 170.251 30.3986 171.881 30.3986C172.27 30.4024 172.656 30.3282 173.016 30.1803C173.375 30.0324 173.701 29.8139 173.972 29.5382C174.564 28.9683 174.859 28.1356 174.857 27.04Z" fill="#5099A5"/>
<path d="M186.827 33.616H182.801V13.9432H186.827V33.616Z" fill="#5099A5"/>
<path d="M203.224 31.5385C201.695 33.02 199.633 33.841 197.492 33.8208C195.303 33.8208 193.492 33.1532 192.06 31.8179C190.628 30.4826 189.913 28.6926 189.913 26.448C189.913 24.2053 190.642 22.42 192.099 21.092C193.495 19.7919 195.348 19.0794 197.265 19.1057C199.116 19.0579 200.918 19.6908 202.322 20.8818C203.707 22.0714 204.4 23.7 204.4 25.7675V27.8894H193.883C193.945 28.2742 194.087 28.6422 194.3 28.9706C194.512 29.299 194.791 29.5807 195.118 29.7983C195.804 30.29 196.633 30.55 197.481 30.5397C198.129 30.5602 198.775 30.4457 199.375 30.2036C199.976 29.9614 200.518 29.5971 200.967 29.1343L203.224 31.5385ZM199.36 23.0895C198.79 22.6278 198.069 22.386 197.333 22.4089C196.55 22.4061 195.787 22.6547 195.16 23.1171C194.839 23.3405 194.571 23.6287 194.372 23.9626C194.173 24.2965 194.048 24.6685 194.006 25.0537H200.337C200.314 24.6786 200.216 24.3116 200.049 23.9744C199.881 23.6371 199.647 23.3363 199.36 23.0895V23.0895Z" fill="#5099A5"/>
<path d="M218.249 29.1758C218.272 29.821 218.142 30.4625 217.87 31.0494C217.597 31.6363 217.19 32.1523 216.681 32.5565C215.634 33.4031 214.305 33.8273 212.696 33.8291C211.553 33.8181 210.418 33.6256 209.336 33.2592C208.195 32.8898 207.13 32.319 206.195 31.5744L207.967 29.0845C209.323 30.1823 211.017 30.7903 212.769 30.8081C213.202 30.8317 213.633 30.7256 214.004 30.5037C214.145 30.4202 214.261 30.3016 214.341 30.1599C214.421 30.0182 214.462 29.8582 214.46 29.6959C214.46 29.3584 214.25 29.0486 213.83 28.7664C213.263 28.4183 212.648 28.151 212.005 27.9724C211.21 27.7234 210.605 27.5131 210.179 27.3361C209.683 27.1145 209.206 26.8546 208.751 26.5587C208.23 26.2553 207.802 25.8175 207.513 25.2921C207.225 24.7667 207.086 24.1735 207.113 23.5763C207.101 22.9511 207.241 22.3321 207.521 21.7713C207.802 21.2105 208.214 20.7243 208.723 20.3533C209.798 19.5234 211.185 19.1084 212.884 19.1084C214.583 19.1084 216.282 19.6737 217.983 20.8043L216.479 23.4546C215.227 22.6081 213.979 22.1839 212.736 22.182C211.492 22.1802 210.871 22.5168 210.871 23.1918C210.873 23.3787 210.93 23.561 211.035 23.7166C211.14 23.8723 211.288 23.9946 211.462 24.0688C212.091 24.3734 212.747 24.6215 213.422 24.8102C214.334 25.0869 214.984 25.311 215.368 25.4604C215.847 25.658 216.309 25.893 216.751 26.1631C217.751 26.7662 218.251 27.7704 218.249 29.1758Z" fill="#5099A5"/>
<path d="M130.018 63.3121V44.7764H134.204V59.6243H142.201V63.3093L130.018 63.3121Z" fill="#5099A5"/>
<path d="M146.16 68.9335C144.745 68.9335 143.412 68.3673 142.162 67.2349L143.984 64.294C144.666 64.9469 145.364 65.2734 146.079 65.2734C146.274 65.2677 146.464 65.2142 146.633 65.1176C146.801 65.021 146.943 64.8843 147.045 64.7201C147.303 64.3891 147.444 63.9841 147.448 63.5664C147.448 63.1607 145.587 58.3174 141.865 49.0366H146.16L149.66 57.931L153.177 49.0477H157.469L150.749 65.8571C150.392 66.7847 149.749 67.5775 148.91 68.1229C148.094 68.6555 147.137 68.9376 146.16 68.9335V68.9335Z" fill="#5099A5"/>
<path d="M173.651 56.1799C173.674 57.1538 173.493 58.122 173.119 59.0233C172.745 59.9247 172.186 60.7397 171.478 61.4169C170.027 62.8315 168.207 63.5389 166.018 63.5389C163.828 63.5389 162.007 62.8315 160.555 61.4169C159.163 60.0236 158.382 58.1446 158.382 56.1868C158.382 54.229 159.163 52.35 160.555 50.9567C162.005 49.5347 163.826 48.8237 166.018 48.8237C168.209 48.8237 170.029 49.5347 171.478 50.9567C172.183 51.6338 172.739 52.4468 173.113 53.3453C173.487 54.2438 173.67 55.2086 173.651 56.1799V56.1799ZM162.434 56.1799C162.389 57.2221 162.749 58.2418 163.442 59.0294C163.772 59.3771 164.171 59.6543 164.614 59.8437C165.057 60.0332 165.535 60.1309 166.018 60.1309C166.5 60.1309 166.978 60.0332 167.421 59.8437C167.864 59.6543 168.263 59.3771 168.594 59.0294C169.284 58.2408 169.644 57.2216 169.599 56.1799C169.641 55.1343 169.282 54.1116 168.594 53.3165C168.265 52.9651 167.867 52.6847 167.424 52.4929C166.98 52.3011 166.502 52.2021 166.018 52.2021C165.534 52.2021 165.055 52.3011 164.612 52.4929C164.168 52.6847 163.77 52.9651 163.442 53.3165C162.751 54.1102 162.39 55.1337 162.434 56.1799V56.1799Z" fill="#5099A5"/>
<path d="M180.735 55.3583V63.3121H176.711V49.0478H180.735V50.6275C181.953 49.4084 183.323 48.7988 184.842 48.7988C185.557 48.7829 186.267 48.9163 186.925 49.1905C187.584 49.4646 188.177 49.8733 188.664 50.3896C189.695 51.4482 190.209 52.8619 190.207 54.6307V63.301H186.183V55.2531C186.183 53.0584 185.369 51.9619 183.742 51.9637C183.35 51.9609 182.961 52.0358 182.599 52.1841C182.237 52.3323 181.908 52.5509 181.633 52.8269C181.034 53.4005 180.735 54.2443 180.735 55.3583Z" fill="#5099A5"/>
<path d="M197.96 55.3582V63.312H193.939V49.0478H197.96V50.6274C199.179 49.4083 200.547 48.7988 202.065 48.7988C202.78 48.7828 203.49 48.9162 204.149 49.1903C204.808 49.4645 205.401 49.8731 205.889 50.3895C206.916 51.4482 207.43 52.8619 207.432 54.6306V63.3009H203.411V55.2531C203.411 53.0583 202.597 51.9618 200.967 51.9637C200.575 51.961 200.187 52.0361 199.826 52.1843C199.464 52.3326 199.136 52.5511 198.861 52.8268C198.26 53.4004 197.96 54.2442 197.96 55.3582Z" fill="#5099A5"/>
<path d="M223.44 63.3121H219.646V61.5885C218.606 62.8796 217.322 63.5251 215.793 63.5251C214.39 63.5689 213.02 63.1011 211.943 62.211C211.433 61.7821 211.027 61.2443 210.757 60.6381C210.488 60.0319 210.361 59.373 210.387 58.7113C210.387 57.2524 210.923 56.1615 211.997 55.4385C213.07 54.7155 214.537 54.3531 216.398 54.3513H219.405V54.271C219.405 52.7494 218.591 51.9896 216.961 51.9914C216.205 52.0016 215.457 52.1401 214.749 52.4009C214.041 52.6378 213.375 52.9822 212.775 53.4217L210.977 50.8516C212.862 49.4938 215.141 48.7773 217.473 48.8099C219.226 48.8099 220.657 49.2424 221.766 50.1074C222.875 50.9724 223.433 52.3446 223.44 54.224V63.3121ZM219.377 57.8758V57.187H216.857C215.248 57.187 214.444 57.6822 214.444 58.6726C214.432 58.9011 214.478 59.1289 214.579 59.3349C214.68 59.5409 214.832 59.7184 215.021 59.8511C215.514 60.1542 216.09 60.2983 216.67 60.2633C217.358 60.2728 218.028 60.0427 218.563 59.6132C218.827 59.4071 219.038 59.1425 219.18 58.8406C219.321 58.5388 219.389 58.2083 219.377 57.8758V57.8758Z" fill="#5099A5"/>
<path d="M227.522 47.2302C227.126 46.8462 226.878 46.3383 226.819 45.7933C226.76 45.2484 226.895 44.7001 227.2 44.2423C227.505 43.7845 227.961 43.4455 228.491 43.2833C229.021 43.121 229.591 43.1456 230.105 43.3528C230.618 43.56 231.043 43.9369 231.306 44.4192C231.57 44.9015 231.656 45.4592 231.549 45.997C231.443 46.5349 231.15 47.0195 230.722 47.368C230.294 47.7166 229.757 47.9074 229.202 47.908C228.89 47.9147 228.58 47.858 228.291 47.7414C228.002 47.6248 227.74 47.4508 227.522 47.2302V47.2302ZM231.21 63.3121H227.186V49.0478H231.21V63.3121Z" fill="#5099A5"/>
<path d="M245.969 58.8719C245.992 59.517 245.862 60.1586 245.59 60.7455C245.318 61.3323 244.911 61.8484 244.401 62.2526C243.354 63.0991 242.026 63.5233 240.417 63.5252C239.273 63.5141 238.139 63.3217 237.057 62.9553C235.915 62.5859 234.851 62.015 233.915 61.2704L235.687 58.7806C237.043 59.8783 238.737 60.4863 240.489 60.5041C240.923 60.5264 241.352 60.4204 241.724 60.1998C241.865 60.1162 241.981 59.9977 242.061 59.856C242.141 59.7142 242.183 59.5543 242.181 59.392C242.181 59.0544 241.971 58.7446 241.551 58.4624C240.983 58.1144 240.368 57.8471 239.725 57.6684C238.93 57.4194 238.325 57.2092 237.899 57.0321C237.402 56.8135 236.922 56.5563 236.466 56.263C235.944 55.9595 235.516 55.5212 235.227 54.9952C234.939 54.4693 234.801 53.8756 234.828 53.2779C234.816 52.6531 234.957 52.0347 235.237 51.4744C235.517 50.9142 235.929 50.4284 236.438 50.0577C237.513 49.2277 238.9 48.8127 240.599 48.8127C242.297 48.8127 243.997 49.378 245.697 50.5086L244.194 53.159C242.941 52.3124 241.693 51.8882 240.45 51.8864C239.207 51.8845 238.585 52.2211 238.585 52.8961C238.588 53.0826 238.646 53.2643 238.75 53.4194C238.855 53.5745 239.003 53.6963 239.176 53.7704C239.806 54.0737 240.462 54.3218 241.136 54.5118C242.049 54.7885 242.699 55.0125 243.082 55.1619C243.561 55.3596 244.024 55.5946 244.465 55.8646C245.47 56.464 245.971 57.4665 245.969 58.8719Z" fill="#5099A5"/>
<path d="M261.64 61.2424C260.115 62.7223 258.058 63.5432 255.92 63.5248C253.727 63.5248 251.915 62.8572 250.485 61.5219C249.055 60.1865 248.338 58.3994 248.332 56.1603C248.332 53.9176 249.061 52.1323 250.519 50.8043C251.914 49.5036 253.767 48.7911 255.685 48.818C257.535 48.7701 259.337 49.4031 260.742 50.5941C262.127 51.7781 262.82 53.4039 262.822 55.4715V57.5934H252.302C252.365 57.9782 252.507 58.3462 252.719 58.6746C252.932 59.0029 253.21 59.2847 253.537 59.5023C254.223 59.9934 255.051 60.2533 255.898 60.2437C256.546 60.2643 257.192 60.1498 257.793 59.9076C258.394 59.6655 258.937 59.3012 259.386 58.8383L261.64 61.2424ZM257.776 52.7852C257.208 52.3211 256.489 52.0763 255.752 52.0963C254.963 52.0929 254.195 52.3445 253.565 52.8128C253.245 53.0364 252.976 53.3246 252.777 53.6584C252.577 53.9923 252.452 54.3641 252.409 54.7494H258.742C258.721 54.3751 258.625 54.0086 258.459 53.6714C258.293 53.3342 258.061 53.0329 257.776 52.7852V52.7852Z" fill="#5099A5"/>
<path d="M276.668 58.8718C276.69 59.516 276.56 60.1565 276.288 60.7423C276.016 61.3282 275.609 61.8433 275.1 62.2469C274.053 63.0935 272.724 63.5177 271.113 63.5195C269.969 63.508 268.835 63.3156 267.753 62.9496C266.613 62.5796 265.549 62.0088 264.614 61.2648L266.387 58.7749C267.742 59.8731 269.436 60.4811 271.189 60.4985C271.622 60.5201 272.051 60.4142 272.423 60.1942C272.564 60.1106 272.681 59.9921 272.761 59.8503C272.841 59.7086 272.882 59.5486 272.88 59.3863C272.88 59.0488 272.67 58.739 272.25 58.4568C271.682 58.1087 271.068 57.8414 270.424 57.6628C269.629 57.4138 269.024 57.2035 268.599 57.0265C268.101 56.8079 267.622 56.5507 267.165 56.2574C266.643 55.9538 266.215 55.5155 265.927 54.9896C265.638 54.4637 265.5 53.87 265.527 53.2723C265.516 52.6475 265.656 52.0291 265.936 51.4688C266.216 50.9086 266.628 50.4227 267.137 50.0521C268.209 49.2221 269.595 48.8071 271.298 48.8071C273 48.8071 274.7 49.3724 276.397 50.503L274.893 53.1533C273.641 52.3068 272.393 51.8826 271.149 51.8807C269.906 51.8789 269.285 52.2155 269.285 52.8905C269.287 53.077 269.345 53.2587 269.45 53.4137C269.554 53.5688 269.702 53.6907 269.875 53.7647C270.506 54.0681 271.161 54.3162 271.835 54.5062C272.748 54.7828 273.398 55.0069 273.781 55.1563C274.261 55.354 274.723 55.5889 275.165 55.859C276.165 56.4621 276.666 57.4664 276.668 58.8718Z" fill="#5099A5"/>
<path d="M141.716 86.5923C142.301 87.2894 142.601 88.1777 142.556 89.0822C142.556 90.3419 142.09 91.3102 141.156 91.987C140.223 92.6639 138.842 93.0033 137.012 93.0051H130.329V78.1599H136.598C138.227 78.1599 139.498 78.4891 140.409 79.1476C140.854 79.4672 141.211 79.8912 141.449 80.3815C141.686 80.8717 141.796 81.4127 141.769 81.9556C141.795 82.725 141.558 83.4805 141.095 84.0997C140.625 84.6909 139.984 85.1271 139.258 85.3501C140.196 85.4763 141.063 85.9144 141.716 86.5923V86.5923ZM131.423 79.0812V84.9988H136.553C137.871 84.9988 138.884 84.7479 139.591 84.2463C139.923 83.9802 140.191 83.6441 140.375 83.2626C140.559 82.8812 140.655 82.4639 140.655 82.0414C140.655 81.6188 140.559 81.2015 140.375 80.8201C140.191 80.4386 139.923 80.1025 139.591 79.8364C138.882 79.3329 137.869 79.0812 136.553 79.0812H131.423ZM140.344 91.3092C141.091 90.8094 141.464 90.0357 141.464 88.9881C141.464 87.9405 141.091 87.1696 140.344 86.6753C139.598 86.181 138.492 85.9339 137.026 85.9339H131.426V92.0645H137.026C138.484 92.0719 139.59 91.8238 140.344 91.3203V91.3092Z" fill="#5099A5"/>
<path d="M147.986 91.4808C146.937 90.3908 146.411 88.8 146.409 86.7085V78.1599H147.504V86.667C147.504 88.4911 147.926 89.855 148.77 90.7587C149.613 91.6624 150.837 92.118 152.44 92.1254C154.031 92.1254 155.244 91.6726 156.08 90.767C156.917 89.8614 157.343 88.4948 157.36 86.667V78.1599H158.455V86.7085C158.455 88.8 157.926 90.3908 156.867 91.4808C155.809 92.5708 154.328 93.1149 152.424 93.113C150.518 93.113 149.038 92.5689 147.986 91.4808Z" fill="#5099A5"/>
<path d="M174.359 85.6488H175.412V91.204C174.726 91.8424 173.91 92.3274 173.018 92.626C172.062 92.9545 171.056 93.1192 170.044 93.1129C168.641 93.1341 167.255 92.7988 166.02 92.1391C164.855 91.5107 163.887 90.5787 163.22 89.4445C162.552 88.2649 162.201 86.9357 162.201 85.5838C162.201 84.232 162.552 82.9027 163.22 81.7231C163.888 80.5895 164.856 79.6577 166.02 79.0285C167.262 78.3669 168.656 78.0316 170.066 78.0547C171.102 78.0408 172.132 78.2152 173.104 78.5693C173.998 78.897 174.807 79.4146 175.476 80.0853L174.79 80.8046C174.195 80.2057 173.472 79.7463 172.673 79.4601C171.842 79.1748 170.966 79.0343 170.086 79.0451C168.869 79.0292 167.668 79.3236 166.6 79.9C165.584 80.4439 164.74 81.2549 164.161 82.2432C163.57 83.2592 163.267 84.4135 163.282 85.5852C163.268 86.7512 163.576 87.8989 164.172 88.905C164.755 89.8922 165.597 90.7056 166.608 91.2594C167.671 91.8436 168.87 92.1422 170.086 92.1253C171.805 92.1253 173.229 91.6725 174.359 90.7669V85.6488Z" fill="#5099A5"/>
<path d="M190.655 92.0313V93.0079H180.295V78.1599H190.344V79.1365H181.384V84.9905H189.392V85.9449H181.384V92.0313H190.655Z" fill="#5099A5"/>
<path d="M199.156 87.8953V93.0079H198.061V87.8953L192.007 78.1599H193.2L198.632 86.8994L204.061 78.1599H205.201L199.156 87.8953Z" fill="#5099A5"/>
<path d="M221.085 93.6361C220.148 93.3155 219.298 92.7853 218.602 92.0868L219.128 91.2264C219.771 91.8658 220.549 92.3563 221.407 92.6622C222.366 93.0328 223.387 93.2206 224.417 93.2155C225.946 93.2155 227.099 92.9287 227.875 92.3551C228.242 92.1055 228.54 91.7703 228.743 91.3794C228.947 90.9885 229.05 90.5539 229.043 90.1143C229.059 89.8052 229.012 89.496 228.906 89.2049C228.8 88.9137 228.636 88.6463 228.424 88.4184C227.994 87.9843 227.47 87.6515 226.892 87.4445C226.083 87.1615 225.256 86.9278 224.417 86.7446C223.458 86.5258 222.514 86.2486 221.589 85.9147C220.89 85.6519 220.268 85.2201 219.78 84.6587C219.258 84.0177 218.993 83.2092 219.036 82.3873C219.03 81.6376 219.245 80.9023 219.654 80.2709C220.117 79.5872 220.775 79.0547 221.544 78.741C222.551 78.3387 223.632 78.1502 224.717 78.1877C225.601 78.1885 226.48 78.3181 227.326 78.5723C228.118 78.7993 228.868 79.1505 229.547 79.6125L229.113 80.5421C228.465 80.099 227.75 79.7626 226.993 79.5461C226.255 79.324 225.488 79.2093 224.717 79.2058C223.237 79.2058 222.117 79.5 221.357 80.0883C220.994 80.3505 220.701 80.6951 220.502 81.0928C220.302 81.4905 220.203 81.9298 220.212 82.3735C220.196 82.683 220.243 82.9923 220.349 83.2838C220.456 83.5753 220.619 83.8433 220.83 84.0722C221.262 84.5045 221.787 84.8363 222.365 85.0432C223.176 85.3279 224.002 85.5681 224.84 85.7625C225.796 85.9814 226.738 86.2586 227.66 86.5925C228.349 86.858 228.965 87.2808 229.457 87.8263C229.979 88.4512 230.245 89.2469 230.202 90.0562C230.208 90.8042 229.989 91.5372 229.572 92.1615C229.091 92.8433 228.417 93.3697 227.634 93.6748C226.617 94.081 225.525 94.2741 224.428 94.2419C223.286 94.2446 222.152 94.0392 221.085 93.6361Z" fill="#5099A5"/>
<path d="M235.721 92.4932C234.601 91.3331 234.041 89.6363 234.041 87.4028V78.2927H235.2V87.3669C235.2 89.3127 235.651 90.7679 236.553 91.7325C237.454 92.697 238.761 93.1803 240.473 93.1821C242.169 93.1821 243.468 92.6989 244.367 91.7325C245.267 90.766 245.717 89.3108 245.717 87.3669V78.2927H246.887V87.4222C246.887 89.6539 246.323 91.3507 245.193 92.5126C244.064 93.6746 242.483 94.2555 240.45 94.2555C238.419 94.2426 236.843 93.6552 235.721 92.4932Z" fill="#5099A5"/>
<path d="M252.333 78.2928H258.678C260.218 78.2641 261.741 78.6139 263.11 79.3109C264.361 79.953 265.405 80.9287 266.123 82.1272C266.828 83.3759 267.198 84.7821 267.198 86.212C267.198 87.6419 266.828 89.048 266.123 90.2968C265.404 91.4947 264.361 92.4702 263.11 93.1131C261.741 93.8113 260.218 94.1613 258.678 94.1312H252.333V78.2928ZM258.588 93.0909C259.947 93.1197 261.293 92.8206 262.508 92.2195C263.598 91.6746 264.505 90.8301 265.121 89.7877C265.72 88.6888 266.033 87.4602 266.033 86.212C266.033 84.9638 265.72 83.7351 265.121 82.6362C264.505 81.5938 263.598 80.7493 262.508 80.2044C261.293 79.6033 259.947 79.3042 258.588 79.333H253.503V93.0909H258.588Z" fill="#5099A5"/>
</svg>
