<svg width="28" height="32" viewBox="0 0 28 32" fill="none" xmlns="http://www.w3.org/2000/svg">
<g clip-path="url(#clip0_199_16)">
<path d="M6.39374 2.65586C6.29043 2.50398 6.16003 2.37896 6.01119 2.28911C5.86236 2.19925 5.6985 2.14662 5.53049 2.1347C5.36249 2.12278 5.1942 2.15186 5.03678 2.21999C4.87937 2.28812 4.73644 2.39375 4.61749 2.52986L2.80799 4.59986C1.96274 5.56786 1.65124 6.93786 2.02049 8.13986C3.55303 13.115 6.046 17.632 9.31449 21.3559C12.5729 25.0912 16.5252 27.9403 20.8785 29.6919C21.9302 30.1139 23.129 29.7579 23.976 28.7919L25.7855 26.7239C25.9046 26.5879 25.997 26.4246 26.0566 26.2447C26.1162 26.0648 26.1417 25.8724 26.1312 25.6804C26.1208 25.4884 26.0748 25.3011 25.9961 25.1311C25.9175 24.961 25.8081 24.8119 25.6752 24.6939L21.638 21.1059C21.496 20.98 21.3309 20.8927 21.1551 20.8504C20.9792 20.8081 20.7973 20.812 20.623 20.8619L16.7905 21.9559C16.2789 22.102 15.743 22.0942 15.2348 21.9334C14.7267 21.7725 14.2636 21.464 13.8907 21.0379L9.59274 16.1239C9.21958 15.6979 8.94931 15.1688 8.80823 14.5881C8.66716 14.0073 8.6601 13.3947 8.78774 12.8099L9.74674 8.42986C9.79033 8.23065 9.79376 8.02273 9.75677 7.82178C9.71979 7.62084 9.64335 7.43212 9.53324 7.26986L6.39374 2.65586ZM3.29624 1.02186C3.60248 0.671757 3.97039 0.400118 4.37553 0.22498C4.78068 0.0498417 5.21379 -0.0247889 5.6461 0.00604365C6.07842 0.0368762 6.50005 0.172466 6.883 0.403811C7.26595 0.635156 7.60146 0.956961 7.86724 1.34786L11.0067 5.95986C11.5825 6.80586 11.7855 7.90786 11.558 8.94786L10.6007 13.3279C10.5512 13.5547 10.5539 13.7923 10.6085 14.0177C10.6631 14.243 10.7677 14.4484 10.9122 14.6139L15.212 19.5279C15.357 19.6934 15.537 19.8131 15.7345 19.8755C15.932 19.9379 16.1402 19.9408 16.339 19.8839L20.1697 18.7899C20.6188 18.6615 21.0875 18.6516 21.5405 18.7607C21.9934 18.8699 22.4187 19.0952 22.7842 19.4199L26.8197 23.0079C28.2705 24.2979 28.4035 26.7479 27.105 28.2299L25.2955 30.2979C24.0005 31.7779 22.065 32.4279 20.2607 31.7019C15.6428 29.8449 11.45 26.8235 7.99324 22.8619C4.52699 18.9119 1.8833 14.1208 0.258237 8.84386C-0.375263 6.78386 0.193487 4.56986 1.48849 3.08986L3.29799 1.02186H3.29624Z" fill="#4E7C8B"/>
</g>
<defs>
<clipPath id="clip0_199_16">
<rect width="28" height="32" fill="white"/>
</clipPath>
</defs>
</svg>
