<svg width="22" height="22" viewBox="0 0 22 22" fill="none" xmlns="http://www.w3.org/2000/svg">
<path d="M17.0543 19.0266L19.3402 16.7385C19.5023 16.5771 19.631 16.3852 19.7187 16.174C19.8065 15.9627 19.8516 15.7362 19.8516 15.5074C19.8516 15.0412 19.6689 14.6029 19.3402 14.2742L16.8781 11.8121C16.7167 11.65 16.5249 11.5214 16.3136 11.4336C16.1024 11.3459 15.8758 11.3007 15.6471 11.3008C15.1809 11.3008 14.7426 11.4834 14.4139 11.8121L12.6135 13.6125C11.6846 13.1911 10.8395 12.6051 10.1191 11.883C9.39525 11.1627 8.80719 10.3177 8.3832 9.38867L10.1836 7.58828C10.3457 7.42688 10.4743 7.23503 10.5621 7.02377C10.6498 6.81251 10.695 6.58599 10.6949 6.35723C10.6949 5.89102 10.5123 5.45274 10.1836 5.12402L7.72363 2.65977C7.56193 2.49745 7.36973 2.36872 7.15809 2.28096C6.94645 2.19321 6.71954 2.14817 6.49043 2.14844C6.02422 2.14844 5.58594 2.33106 5.25723 2.65977L2.97344 4.94356C2.44707 5.46777 2.14844 6.1918 2.14844 6.93516C2.14844 7.09199 2.16133 7.24238 2.18711 7.39063C2.66406 10.2867 4.20449 13.1592 6.52051 15.4773C8.83437 17.7934 11.7047 19.3316 14.6094 19.815C15.4967 19.9611 16.4098 19.6668 17.0543 19.0266V19.0266Z" fill="white"/>
</svg>
